<?xml version="1.0" encoding="utf-8"?>
<!-- Generator: Adobe Illustrator 16.0.0, SVG Export Plug-In . SVG Version: 6.00 Build 0)  -->
<!DOCTYPE svg PUBLIC "-//W3C//DTD SVG 1.1//EN" "http://www.w3.org/Graphics/SVG/1.1/DTD/svg11.dtd">
<svg version="1.1" id="Layer_1" xmlns="http://www.w3.org/2000/svg" xmlns:xlink="http://www.w3.org/1999/xlink" x="0px" y="0px"
	 width="800px" height="414.51px" viewBox="2 25.49 800 414.51" enable-background="new 2 25.49 800 414.51" xml:space="preserve">
<g id="top">
	
	<path fill="#EDA2A2" stroke="#BA5D5D" stroke-width="3" stroke-miterlimit="10" d="M497.95,122.812
		c-0.515,1.572-2.235,2.42-3.849,1.913c-61.116-19.198-126.653-19.198-187.771,0c-1.613,0.507-3.333-0.342-3.848-1.913
		c-7.812-24.046-15.625-48.092-23.438-72.137c-0.514-1.571,0.719-3.385,2.76-4.025c77.083-24.214,159.739-24.214,236.822,0
		c2.041,0.64,3.275,2.454,2.761,4.025C513.576,74.721,505.763,98.766,497.95,122.812z"/>
</g>
<g id="topleft">
	<path fill="#EABED0" stroke="#B77794" stroke-miterlimit="10" d="M296.516,123.895c0.531,1.568-0.338,3.278-1.933,3.838
		c-60.43,21.263-112.892,60.542-150.309,112.541c-0.988,1.372-2.874,1.724-4.227,0.774c-20.667-14.567-41.332-29.132-61.998-43.697
		c-1.353-0.951-1.452-3.14-0.203-4.877C125.037,126.891,191.203,77.351,267.42,50.535c2.018-0.709,4.092,0.002,4.622,1.568
		C280.201,76.034,288.358,99.964,296.516,123.895z"/>
	<path fill="#CE7C7C" stroke="#9B4242" stroke-width="3" stroke-miterlimit="10" d="M296.516,123.895
		c0.531,1.568-0.338,3.278-1.933,3.838c-60.43,21.263-112.892,60.542-150.309,112.541c-0.988,1.372-2.874,1.724-4.227,0.774
		c-20.667-14.567-41.332-29.132-61.998-43.697c-1.353-0.951-1.452-3.14-0.203-4.877C125.037,126.891,191.203,77.351,267.42,50.535
		c2.018-0.709,4.092,0.002,4.622,1.568C280.201,76.034,288.358,99.964,296.516,123.895z"/>
</g>
<g id="topright">
	<path fill="#DDA276" stroke="#BC7D51" stroke-width="3" stroke-miterlimit="10" d="M503.278,123.895
		c-0.529,1.568,0.34,3.278,1.935,3.838c60.428,21.263,112.893,60.542,150.309,112.541c0.987,1.372,2.873,1.724,4.228,0.774
		c20.667-14.567,41.332-29.132,61.997-43.697c1.354-0.951,1.453-3.14,0.204-4.877C674.758,126.892,608.591,77.352,532.374,50.535
		c-2.019-0.709-4.093,0.002-4.622,1.568C519.594,76.034,511.438,99.964,503.278,123.895z"/>
	<path fill="#EAB250" stroke="#D1922C" stroke-width="3" stroke-miterlimit="10" d="M503.278,123.895
		c-0.529,1.568,0.34,3.278,1.935,3.838c60.428,21.263,112.893,60.542,150.309,112.541c0.987,1.372,2.873,1.724,4.228,0.774
		c20.667-14.567,41.332-29.132,61.997-43.697c1.354-0.951,1.453-3.14,0.204-4.877C674.758,126.892,608.591,77.352,532.374,50.535
		c-2.019-0.709-4.093,0.002-4.622,1.568C519.594,76.034,511.438,99.964,503.278,123.895z"/>
</g>
<g id="bottomleft">
	<path fill="#C5E4EF" stroke="#29ABE2" stroke-miterlimit="10" d="M138.506,244.383c1.377,0.917,1.733,2.803,0.813,4.22
		c-34.87,53.738-52.428,116.88-50.306,180.907c0.056,1.689-1.223,3.12-2.875,3.194c-25.26,1.084-50.519,2.171-75.778,3.257
		c-1.652,0.071-3.068-1.601-3.139-3.74C4.543,351.47,26.688,271.835,70.668,204.056c1.165-1.795,3.242-2.497,4.618-1.581
		C96.359,216.445,117.431,230.415,138.506,244.383z"/>
	<path fill="#C65252" stroke="#7F1919" stroke-width="3" stroke-miterlimit="10" d="M138.506,244.383
		c1.377,0.917,1.733,2.803,0.813,4.22c-34.87,53.738-52.428,116.88-50.306,180.907c0.056,1.689-1.223,3.12-2.875,3.194
		c-25.26,1.084-50.519,2.171-75.778,3.257c-1.652,0.071-3.068-1.601-3.139-3.74C4.543,351.47,26.688,271.835,70.668,204.056
		c1.165-1.795,3.242-2.497,4.618-1.581C96.359,216.445,117.431,230.415,138.506,244.383z"/>
</g>
<g id="bottomright">
	<path fill="#C5E4EF" stroke="#29ABE2" stroke-width="3" stroke-miterlimit="10" d="M662.027,244.385
		c-1.377,0.917-1.733,2.803-0.812,4.22c34.87,53.739,52.428,116.88,50.307,180.907c-0.058,1.689,1.223,3.12,2.875,3.194
		c25.26,1.084,50.519,2.171,75.777,3.257c1.652,0.071,3.068-1.601,3.139-3.739c2.68-80.752-19.467-160.387-63.446-228.166
		c-1.164-1.795-3.24-2.498-4.617-1.581C704.175,216.447,683.104,230.417,662.027,244.385z"/>
	<path fill="#EDE069" stroke="#CCBC4A" stroke-width="3" stroke-miterlimit="10" d="M662.027,244.385
		c-1.377,0.917-1.733,2.803-0.812,4.22c34.87,53.739,52.428,116.88,50.307,180.907c-0.058,1.689,1.223,3.12,2.875,3.194
		c25.26,1.084,50.519,2.171,75.777,3.257c1.652,0.071,3.068-1.601,3.139-3.739c2.68-80.752-19.467-160.387-63.446-228.166
		c-1.164-1.795-3.24-2.498-4.617-1.581C704.175,216.447,683.104,230.417,662.027,244.385z"/>
</g>
</svg>
