<?xml version="1.0" encoding="utf-8"?>
<!-- Generator: Adobe Illustrator 15.0.1, SVG Export Plug-In . SVG Version: 6.00 Build 0)  -->
<!DOCTYPE svg PUBLIC "-//W3C//DTD SVG 1.1//EN" "http://www.w3.org/Graphics/SVG/1.1/DTD/svg11.dtd">
<svg version="1.1" id="Layer_1" xmlns="http://www.w3.org/2000/svg" xmlns:xlink="http://www.w3.org/1999/xlink" x="0px" y="0px"
	 width="112.245px" height="115.134px" viewBox="0 0 112.245 115.134" enable-background="new 0 0 112.245 115.134"
	 xml:space="preserve">
<g id="head">
	<g>
		<path fill="none" d="M104.203,48.104c0.271,1.82,0.379,3.63,0.4,5.44c0.229-2.65,0.1-5.35-0.301-8c0.051,0.66,0.09,1.32,0.1,2
			C104.402,47.773,104.322,47.954,104.203,48.104z"/>
		<path fill="none" d="M103.083,56.954c-0.002-0.012-0.004-0.021-0.004-0.034c-0.051,0.209-0.104,0.419-0.16,0.629
			C102.972,57.35,103.035,57.153,103.083,56.954z"/>
		<path fill="none" d="M38.107,88.067C38.105,88.067,38.105,88.067,38.107,88.067c2.891,1.517,5.689,3.797,8.715,4.117
			c3.043,0.332,6.076,0.51,9.1,0.531c-3.021-0.021-6.057-0.199-9.1-0.531C43.798,91.864,40.998,89.584,38.107,88.067z"/>
		<path fill="none" d="M102.892,56.258c0,0.017,0.006,0.041,0.01,0.061c0.01,0.075,0.031,0.162,0.07,0.225
			c0.029,0.05,0.051,0.1,0.08,0.15c0.004,0.03,0.008,0.05,0.01,0.072c-0.002-0.024-0.004-0.047-0.008-0.072
			c-0.029-0.05-0.049-0.1-0.076-0.15c-0.053-0.08-0.076-0.16-0.076-0.24c0,0.005,0,0.011,0,0.016
			C102.902,56.298,102.892,56.275,102.892,56.258z"/>
		<path fill="none" d="M102.931,56.096c0.008-0.02,0.008-0.045,0.016-0.062c0-0.018-0.045-0.029-0.045-0.046
			c0,0.034,0.02,0.068,0.012,0.102C102.914,56.091,102.923,56.094,102.931,56.096z"/>
		<path fill="none" d="M101.722,60.999c-0.041,0.1-0.053,0.2-0.039,0.294c-0.006-0.079,0.002-0.163,0.039-0.25
			c0.1-0.22,0.189-0.44,0.279-0.66c0.104-0.25,0.182-0.508,0.271-0.761c-0.086,0.23-0.176,0.458-0.271,0.671
			C101.912,60.293,101.822,60.778,101.722,60.999z"/>
		<path fill="none" d="M102.169,61.8c-0.154-0.016-0.312-0.114-0.406-0.257c-0.002-0.002,0-0.006-0.002-0.008
			c-0.002,0.004-0.002,0.009-0.004,0.013C101.855,61.694,102.013,61.791,102.169,61.8z"/>
		<path fill="none" d="M21.425,77.463c-3.82-7.08-6.416-14.609-7.258-22.53c-0.318-3.05-0.363-6.15-0.133-9.31
			c0.09-1.15,0.262-2.31,0.482-3.45c0.01-0.03,0.125-0.08,0.145-0.15c-0.02,0.07-0.24,0.12-0.25,0.15
			c-0.221,1.14-0.34,2.3-0.43,3.45c-0.23,3.16-0.16,6.26,0.16,9.31c0.84,7.92,3.447,15.45,7.27,22.53
			c3.059,5.67,7.809,10.167,14.898,10.357C29.224,87.627,24.482,83.131,21.425,77.463z"/>
		<path fill="none" d="M103.664,62.28c-0.252-0.014-0.512-0.19-0.512-0.486c0-0.59,0.02-1.18,0.041-1.77
			c-0.018,0.043-0.033,0.086-0.049,0.129c-0.025,0.547-0.076,1.094-0.076,1.641C103.068,62.112,103.416,62.292,103.664,62.28z"/>
		<path fill="none" d="M17.292,35.423c9.934,2.363,19.773,3.266,29.6,3.213C37.058,38.688,27.212,37.784,17.292,35.423z"/>
		<path fill="none" d="M98.878,33.224c2.141,2.36,3.086,8.5,3.455,10.32c0.221,1.1,0.393,2.21,0.562,3.33
			c-0.148,0.07-0.277,0.21-0.277,0.42c0-0.21,0.146-0.35,0.295-0.42c-0.17-1.12-0.35-2.23-0.568-3.33
			c-0.371-1.82-1.32-7.96-3.461-10.32c-0.039-0.04-0.08-0.08-0.109-0.12c-0.141-0.14-0.281-0.26-0.43-0.37h-0.002
			c0.148,0.11,0.289,0.23,0.43,0.37C98.8,33.144,98.837,33.184,98.878,33.224z"/>
		<path fill="none" d="M90.402,19.381c-0.055-0.042-0.111-0.088-0.168-0.088c-0.004,0-0.006,0-0.01,0
			c-0.244,0-0.322,0.368-0.322,0.611c0,0.001,0,0.036,0,0.037c0,0.015-0.121,0.027-0.123,0.042c-0.021,0.09-0.064,0.17-0.033,0.26
			c0.021,0.05,0.033,0.1,0.084,0.15c1.275,1.206,2.242,2.572,3.311,4.036c0.002,0.004-0.236,0.007-0.236,0.011v0.001
			c0-0.004,0.229-0.01,0.225-0.015c0.004,0.002,0.125,0.001,0.129,0.004c-1.07-1.47-2.232-2.853-3.514-4.062
			c-0.051-0.05-0.059-0.125-0.08-0.174c-0.008-0.071,0.006-0.177,0.014-0.257c0.062-0.243,0.297-0.575,0.541-0.579
			c0.004,0,0.014,0.003,0.018,0.004c0-0.001,0-0.003-0.002-0.004c0.008,0,0.016,0.007,0.021,0.007
			c0.051,0.006,0.1,0.012,0.148,0.048c0.025,0.014,0.051-0.05,0.072-0.09C90.453,19.354,90.431,19.396,90.402,19.381z"/>
		<path fill="none" d="M39.671,99.112c-1.738-1.279-3.527-2.561-5.447-3.5c-13.75-6.709-19.553-18.312-21.932-32.03
			c-0.25-1.42-0.449-2.874-0.631-4.333c-0.16-1.33-0.318-2.676-0.469-4.006c-0.111-0.98-0.211-1.972-0.301-2.962
			c-0.082-0.924-0.135-1.832-0.156-2.726c0.021,0.901,0.072,1.818,0.156,2.75c0.09,0.99,0.189,1.97,0.299,2.95
			c0.15,1.33,0.311,2.67,0.471,4c0.182,1.46,0.379,2.91,0.629,4.33c2.381,13.72,8.18,25.32,21.93,32.029
			c1.922,0.94,3.707,2.221,5.447,3.5c2.238,1.66,4.545,2.851,6.904,3.66c3.229,1.112,6.533,1.52,9.865,1.461
			c-3.328,0.057-6.633-0.351-9.854-1.461C44.222,101.962,41.912,100.772,39.671,99.112z"/>
		<path fill="none" d="M98.158,32.776c-0.188,0.011-0.375-0.079-0.459-0.305h-0.002C97.783,32.697,97.968,32.788,98.158,32.776z"/>
		<path fill="none" d="M92.302,24.894c0.66,0.56,1.301,1.15,1.908,1.77c0.361,0.5,0.682,1.04,0.973,1.61
			c-0.002,0.006,0.002,0.012,0.002,0.018c0-0.006-0.004-0.012-0.002-0.018c-0.291-0.57-0.611-1.11-0.973-1.61
			C93.603,26.043,92.962,25.454,92.302,24.894c-0.113-0.093-0.16-0.206-0.164-0.318l0,0C92.14,24.688,92.189,24.8,92.302,24.894z"/>
		<path fill="#010101" d="M90.238,19.362c0.006,0.001,0.012,0.002,0.018,0.003c-0.006,0-0.014-0.007-0.02-0.007
			C90.236,19.359,90.238,19.36,90.238,19.362z"/>
		<path fill="#010101" d="M103.023,36.063c-1.131-3.16-2.49-6.32-4.08-9.47c-6.15-12.18-15.801-19.73-30.021-20.96
			c-10.068-0.87-19.789,0.53-28.85,4.36c-8.121,3.44-16.52,7.44-23,13.2c-5.01,4.46-8.529,11.66-8.109,19.24
			c0.391,7.14,0.949,14.33,2.16,21.36c0.1,0.641,0.219,1.27,0.34,1.91c1.299,6.79,3.92,14.32,5.818,21
			c0.65,2.279,15.67,12.49,28.961,17.05c4.4,1.521,8.609,2.41,12.051,2.19c12.789-0.83,23.85-6.17,35.34-10.23
			c0.6,3.141,4.189-4.189,5.789-7.34C108.312,70.803,109.193,53.363,103.023,36.063z M104.283,57.173
			c0.379,1.521,0.039,3.34-0.148,4.75c-0.012,0.06-0.031,0.12-0.062,0.16c-0.039,0.071-0.102,0.116-0.17,0.149
			c0,0.01,0,0.021,0,0.03c0,8.89-1.795,17.37-6.305,25.341c-1.289,2.27-3.865,4.119-6.314,5.279
			c-7.201,3.42-14.359,7.34-21.979,9.33c-4.25,1.104-8.578,1.946-12.865,2.02c-3.332,0.06-6.639-0.348-9.865-1.459
			c-2.361-0.811-4.666-2-6.906-3.66c-1.738-1.28-3.525-2.561-5.445-3.5c-13.75-6.711-19.551-18.311-21.93-32.03
			c-0.25-1.42-0.449-2.87-0.629-4.33c-0.16-1.33-0.32-2.67-0.471-4c-0.109-0.98-0.209-1.96-0.299-2.95
			c-0.084-0.933-0.137-1.849-0.158-2.75c-0.328-13.418,6.18-23.416,17.617-30.419c15.541-9.51,32.541-13.09,50.211-8.081
			c3.811,1.09,6.811,2.971,9.33,5.471c0.93,0.92,1.799,1.77,2.619,2.77c2.061,2,3.881,3.59,5.461,5.64
			c0.27,0.08,0.52,0.49,0.639,0.84c0.051,0.13,0.09,0.26,0.141,0.39c2.762,3.83,4.762,8.26,6.07,12.68
			c0.641,2.17,1.16,4.42,1.48,6.7c0.398,2.65,0.527,5.35,0.299,8c-0.021,0.17-0.029,0.34-0.049,0.51
			C104.572,55.113,104.533,56.184,104.283,57.173z"/>
		<path fill="#FFFFFF" d="M104.203,48.104c0.119-0.15,0.199-0.33,0.199-0.56c-0.01-0.68-0.049-1.34-0.1-2
			c-0.32-2.28-0.842-4.53-1.48-6.7c-1.309-4.42-3.309-8.85-6.07-12.68c-0.049-0.13-0.09-0.26-0.139-0.39
			c-0.121-0.35-0.371-0.76-0.641-0.84c-1.58-2.05-3.4-3.64-5.461-5.64c0,0,0,0-0.01,0c-0.008,0-0.018,0.018-0.027,0.03
			c-0.021,0.04-0.043,0.104-0.072,0.09c-0.049-0.037-0.098-0.042-0.146-0.048c-0.006-0.001-0.012-0.002-0.018-0.003
			c-0.004-0.001-0.01-0.004-0.014-0.004c-0.244,0.004-0.473,0.336-0.533,0.579c-0.008,0.08-0.008,0.186,0.002,0.257
			c0.02,0.05,0.059,0.124,0.109,0.174c1.279,1.21,2.5,2.593,3.57,4.062c-0.004-0.002-0.008-0.001-0.012-0.004
			c0.004,0.005,0.008,0.011,0.012,0.015c-0.002,0-0.002-0.001-0.004-0.001c0.002,0.001,0.002,0.002,0.004,0.003
			c-0.16-0.11-0.301-0.23-0.471-0.33c-0.359-0.209-0.771,0.125-0.764,0.461c0.002,0.112,0.051,0.225,0.164,0.317
			c0.658,0.56,1.299,1.15,1.908,1.771c0.359,0.5,0.682,1.041,0.971,1.61c0,0.006,0.002,0.012,0.002,0.018
			c-0.006,0.115,0.023,0.238,0.119,0.353c0.061,0.08,0.121,0.16,0.182,0.24c0.379,0.84,0.74,1.7,1.16,2.5
			c-0.359,0.26-0.275,0.95,0.264,0.91c0.26-0.02,0.518,0.01,0.756,0.08c0.012,0.02,0.023,0.03,0.033,0.05
			c0,0.01,0.037,0.03,0.047,0.04c-0.016,0.003-0.029,0.006-0.047,0.009c0.086,0.226,0.271,0.315,0.459,0.305
			c0.062-0.004,0.125-0.019,0.186-0.043h0.002c0.148,0.11,0.289,0.23,0.43,0.37c0.029,0.04,0.07,0.08,0.109,0.12
			c2.141,2.36,3.09,8.5,3.461,10.32c0.219,1.1,0.398,2.21,0.568,3.33c-0.148,0.07-0.295,0.21-0.295,0.42
			c0,2.9,0.285,5.81,0.285,8.69c0,0.001,0,0.003,0,0.004c0,0.017,0.045,0.028,0.045,0.046c-0.01,0.018-0.01,0.043-0.016,0.063
			c0.008,0.002,0.016,0.004,0.016,0.007c-0.029,0.059-0.045,0.119-0.045,0.189v0.01c0,0.08,0.025,0.16,0.076,0.24
			c0.027,0.05,0.047,0.1,0.076,0.15c0.004,0.025,0.006,0.048,0.008,0.072c0.008,0.043,0.014,0.083,0.02,0.144
			c0,0.003-0.002,0.007-0.002,0.011c0,0.012,0.002,0.021,0.004,0.034c-0.049,0.2-0.111,0.396-0.164,0.595
			c-0.049,0.193-0.104,0.383-0.156,0.575c-0.104,0.364-0.219,0.726-0.34,1.085c-0.049,0.141-0.098,0.279-0.148,0.414
			c-0.09,0.253-0.17,0.511-0.27,0.761c-0.092,0.22-0.182,0.44-0.281,0.66c-0.037,0.087-0.045,0.17-0.039,0.25
			c0.01,0.086,0.037,0.166,0.08,0.228c-0.002,0.006-0.002,0.011-0.004,0.016c0.002,0.002,0.002,0.005,0.004,0.008
			c0.094,0.143,0.25,0.241,0.406,0.257c0.152,0.009,0.303-0.062,0.391-0.257c0.23-0.5,0.398-1.01,0.59-1.52
			c-0.002,0.043-0.004,0.086-0.006,0.129c0.016-0.043,0.031-0.086,0.049-0.129c-0.021,0.59-0.041,1.18-0.041,1.77
			c0,0.296,0.26,0.473,0.512,0.486c0.131-0.008,0.236-0.068,0.236-0.198c0,0.05,0,0.099,0,0.149c0.068-0.033,0.131-0.078,0.17-0.149
			c0.031-0.04,0.051-0.101,0.061-0.16c0.189-1.41,0.529-3.229,0.15-4.75c0.25-0.99,0.289-2.06,0.271-3.12
			c0.02-0.17,0.027-0.34,0.049-0.51C104.582,51.733,104.472,49.923,104.203,48.104z M102.951,56.089
			c0.008-0.034,0.016-0.067,0.023-0.102c0.006,0.017,0.008,0.028,0.008,0.046C102.974,56.049,102.96,56.07,102.951,56.089z"/>
		<path fill="#FFFFFF" d="M102.951,56.089c0.01-0.019,0.023-0.04,0.031-0.056c0-0.018-0.002-0.029-0.008-0.046
			C102.964,56.022,102.958,56.056,102.951,56.089z"/>
		<path fill="#010101" d="M97.697,32.473c-0.488,0.088-0.926,0.184-1.42,0.271c-13.494,2.489-26.832,4.768-40.16,5.58
			c-3.074,0.188-6.148,0.297-9.227,0.312c-9.824,0.053-19.666-0.85-29.598-3.213c-0.701,1.38-2.391,5.33-2.391,6.48v0.01
			c0,0.04-0.24,0.07-0.24,0.11c-0.02,0.07-0.135,0.12-0.145,0.15c-0.223,1.14-0.395,2.3-0.482,3.45
			c-0.23,3.16-0.188,6.26,0.133,9.31c0.842,7.92,3.438,15.45,7.258,22.53c3.057,5.668,7.799,10.165,14.885,10.357
			c0.379,0.01,0.758,0.017,1.148,0.002c-7.641-2.79-13.312-7.53-16.562-15.24c-4.08-9.689-5.072-23.35-4.012-35.16
			c2.01,0.59,3.998,1.32,6.049,1.72c22.289,4.38,44.35,2.62,66.33-2.35c4.947-1.12,7.92-0.925,9.389,1.226
			c0.43,0.6,0.73,1.274,0.91,2.274h0.01c0.26,1,0.33,2.775,0.23,4.625c-0.461,8.87-1.512,17.908-3.869,26.438
			c-2.682,9.729-9.592,15.582-20.361,16.153c-7.969,0.431-15.891,1.862-23.85,2.112c-1.65,0.05-3.291-0.069-4.949-0.279
			c-0.551-0.07-1.111-0.148-1.67-0.238c-2.432-0.371-4.861-0.871-7.301-1.201c0.102,0.052,0.201,0.111,0.305,0.164
			c2.891,1.518,5.691,3.798,8.715,4.117c3.043,0.332,6.076,0.51,9.1,0.531c9.068,0.062,18.037-1.299,26.852-4.201
			c10.988-3.631,15.908-11.891,18.088-22.461c0.209-1.01,0.408-2.02,0.598-3.029c0.102-0.49,0.193-0.99,0.295-1.48
			c0,0.002,0.004,0.003,0.006,0.005c0-0.004,0.002-0.008,0.002-0.013c0.002-0.006,0.002-0.01,0.004-0.016
			c-0.043-0.062-0.07-0.142-0.08-0.228c-0.014-0.094-0.002-0.194,0.039-0.294c0.1-0.221,0.189-0.705,0.279-0.705h-0.01
			c0.279-1,0.57-2.675,0.9-4.035c0,0.017,0.01,0.041,0.01,0.061c0-0.005,0-0.011,0-0.016v-0.01c0-0.07,0.014-0.13,0.045-0.19
			c0-0.002-0.008-0.004-0.016-0.007c-0.01-0.002-0.02-0.005-0.02-0.007c0.008-0.034-0.012-0.067-0.012-0.102
			c0-0.001,0-0.003,0-0.004c0-2.88-0.285-5.79-0.285-8.69c0-0.21,0.129-0.35,0.277-0.42c-0.17-1.12-0.34-2.23-0.561-3.33
			c-0.371-1.82-1.316-7.96-3.457-10.32c-0.039-0.04-0.076-0.08-0.105-0.12c-0.141-0.14-0.279-0.26-0.43-0.37
			c-0.061,0.025-0.121,0.04-0.186,0.043C97.968,32.788,97.783,32.697,97.697,32.473z"/>
		<path fill="#FFFFFF" d="M102.972,56.543c-0.039-0.063-0.062-0.149-0.07-0.225c-0.004-0.02-0.01-0.043-0.01-0.061
			c-0.33,1.36-0.619,3.035-0.9,4.035h0.01c0.098-0.213,0.188-0.44,0.273-0.671c0.051-0.135,0.1-0.273,0.146-0.414
			c0.121-0.359,0.236-0.721,0.342-1.085c0.053-0.19,0.105-0.382,0.156-0.575c0.055-0.21,0.109-0.42,0.158-0.629
			c0.002-0.003,0.002-0.007,0.004-0.011c-0.008-0.06-0.014-0.101-0.02-0.144c-0.004-0.022-0.008-0.042-0.012-0.072
			C103.023,56.644,103.001,56.593,102.972,56.543z"/>
		<path fill="#FFFFFF" d="M103.664,62.28c-0.248,0.011-0.596-0.168-0.596-0.486c0-0.547,0.051-1.094,0.076-1.641
			c0.002-0.043,0.004-0.086,0.006-0.129c-0.191,0.51-0.359,1.02-0.59,1.52c-0.088,0.195-0.238,0.266-0.391,0.257
			c-0.156-0.01-0.314-0.106-0.414-0.252c0-0.002-0.004-0.003-0.004-0.005c-0.102,0.49-0.193,0.99-0.295,1.48
			c-0.189,1.01-0.389,2.02-0.598,3.029c-2.18,10.57-7.1,18.83-18.088,22.461c-8.812,2.901-17.783,4.264-26.852,4.201
			c-3.021-0.021-6.057-0.199-9.1-0.531c-3.023-0.319-5.824-2.601-8.717-4.117c0,0,0,0,0.002,0c-0.104-0.053-0.203-0.113-0.305-0.164
			c2.439,0.33,4.869,0.83,7.301,1.199c0.559,0.09,1.119,0.17,1.67,0.239c1.658,0.21,3.299,0.329,4.949,0.279
			c7.959-0.25,15.881-1.683,23.85-2.112c10.77-0.57,17.68-6.424,20.361-16.154c2.357-8.529,3.408-17.566,3.869-26.438
			c0.102-1.848,0.031-3.623-0.229-4.623h-0.01c-0.18-1-0.48-1.675-0.91-2.274c-1.469-2.15-4.439-2.346-9.389-1.226
			c-21.98,4.97-44.041,6.73-66.33,2.35c-2.051-0.4-4.039-1.13-6.049-1.72c-1.061,11.81-0.068,25.47,4.012,35.16
			c3.25,7.71,8.922,12.45,16.562,15.239c-0.393,0.016-0.771,0.009-1.148-0.002c-7.09-0.189-11.84-4.688-14.898-10.356
			c-3.818-7.08-6.43-14.61-7.27-22.53c-0.32-3.05-0.391-6.15-0.16-9.31c0.09-1.15,0.211-2.31,0.43-3.45
			c0.01-0.03,0.23-0.08,0.25-0.15c0-0.04,0.24-0.07,0.24-0.11v-0.01c0-1.15,1.689-5.1,2.391-6.48c9.92,2.36,19.768,3.264,29.6,3.213
			c3.076-0.016,6.15-0.125,9.227-0.312c13.328-0.812,26.664-3.09,40.16-5.58c0.492-0.087,0.93-0.184,1.42-0.271l0,0
			c0.016-0.003,0.031-0.006,0.047-0.009c-0.01-0.01-0.047-0.03-0.047-0.04c-0.01-0.02-0.023-0.03-0.033-0.05
			c-0.24-0.07-0.496-0.1-0.756-0.08c-0.539,0.04-0.623-0.65-0.264-0.91c-0.42-0.8-0.781-1.66-1.16-2.5
			c-0.062-0.08-0.121-0.16-0.182-0.24c-0.096-0.114-0.125-0.237-0.119-0.353c0-0.006-0.002-0.012-0.002-0.018
			c-0.289-0.57-0.609-1.11-0.971-1.61c-0.609-0.62-1.25-1.21-1.91-1.77c-0.111-0.093-0.16-0.206-0.162-0.318l0,0
			c-0.008-0.336,0.402-0.671,0.764-0.461c0.17,0.1,0.311,0.22,0.471,0.33c-0.002-0.001-0.002-0.002-0.004-0.003
			c-0.002-0.003-0.004-0.007-0.008-0.011c-1.066-1.464-2.283-2.83-3.561-4.036c-0.051-0.05-0.09-0.1-0.109-0.15
			c-0.029-0.09,0.066-0.17,0.086-0.26c0.004-0.015,0.125-0.027,0.125-0.042c0-0.001,0-0.036,0-0.037
			c0-0.243,0.076-0.611,0.322-0.611c0.002,0,0.006,0,0.01,0c0.057,0,0.111,0.046,0.168,0.088c0.027,0.014,0.051-0.027,0.072-0.058
			c0.01-0.013,0.02-0.03,0.025-0.03c0.012,0,0.012,0,0.012,0c-0.82-1-1.689-1.85-2.619-2.77c-2.521-2.5-5.521-4.38-9.33-5.471
			c-17.67-5.01-34.67-1.43-50.211,8.081c-11.438,7.003-17.945,17-17.617,30.419c0.021,0.894,0.074,1.802,0.158,2.726
			c0.09,0.99,0.188,1.982,0.299,2.962c0.148,1.33,0.311,2.676,0.471,4.006c0.18,1.46,0.381,2.914,0.631,4.333
			c2.379,13.72,8.18,25.32,21.93,32.031c1.92,0.939,3.709,2.221,5.449,3.5c2.24,1.66,4.551,2.851,6.91,3.66
			c3.223,1.11,6.525,1.519,9.855,1.461c4.285-0.074,8.613-0.918,12.863-2.021c7.619-1.989,14.779-5.91,21.98-9.33
			c2.449-1.159,5.023-3.01,6.314-5.28c4.51-7.97,6.305-16.449,6.305-25.34c0-0.01,0-0.021,0-0.031c0-0.049,0-0.099,0-0.148
			C103.902,62.213,103.796,62.274,103.664,62.28z"/>
	</g>
</g>
</svg>
