<?xml version="1.0" encoding="utf-8"?>
<!-- Generator: Adobe Illustrator 15.0.1, SVG Export Plug-In . SVG Version: 6.00 Build 0)  -->
<!DOCTYPE svg PUBLIC "-//W3C//DTD SVG 1.1//EN" "http://www.w3.org/Graphics/SVG/1.1/DTD/svg11.dtd">
<svg version="1.1" id="Layer_1" xmlns="http://www.w3.org/2000/svg" xmlns:xlink="http://www.w3.org/1999/xlink" x="0px" y="0px"
	 width="108.163px" height="218.368px" viewBox="0 0 108.163 218.368" enable-background="new 0 0 108.163 218.368"
	 xml:space="preserve">
<g id="right_foot">
	<g>
		<g id="XMLID_7_">
			<path fill="#010101" d="M26.559,181.167c7.471-3.938,10.879-10.769,14.471-17.778c2.65-5.17,2.359-10.11,0.639-15.312
				c-0.408-1.24-0.35-2.639-0.43-3.969c-1.1-17.271-2.26-34.551-3.189-51.83c-0.1-1.91,1.051-3.881,1.68-5.83
				c0.041,0.059,0.061,0.128,0.102,0.189c0.93,13.461,1.891,26.92,2.76,40.381c0.391,5.978,0.301,12,0.961,17.949
				c0.389,3.519-0.422,7.789,4.1,9.979c0.49,0.23-0.051,3.879-0.949,5.459c-2.121,3.691-5.25,6.861-7.061,10.67
				c-2.682,5.64-7.262,8.961-12.262,11.99c-6.709,4.061-10.77,9.701-11.379,17.711c-0.271,3.571,1.139,5.87,4.449,6.809
				c9.02,2.541,17.92,3.843,26.109-2.629c5.061-3.989,10.141-8,15.541-11.5c2.52-1.64,5.74-2.679,8.74-2.979
				c6.9-0.699,10.91-6.222,7.77-12.549c-1.9-3.843-2.041-7.343-1.92-11.353c0.15-5.128-0.67-10.289-0.82-15.438
				c-0.059-2.209,0.23-4.52,0.811-6.66c1.859-6.86,3.949-13.67,5.91-20.51c1.059-3.671,2.279-7.33,2.979-11.08
				c1.182-6.382,2-12.821,2.121-19.722c-7.699,7.812-16.82,10.272-26.721,9.683c-10.51-0.621-16.959-7.103-21.141-16.211
				c-0.01-0.132-0.02-0.261-0.029-0.392c-0.02,0.07-0.039,0.131-0.07,0.201c-0.008-0.031-0.02-0.051-0.029-0.08
				c0.779-6.371,1.08-12.74,1.15-19.111l1.148,0.013c-0.068,5.889-0.08,11.5,0.291,17.09c0.658,9.82,13.408,17.359,24.609,16.029
				c16.379-1.939,23.66-14.24,24.102-26.66l1.35,0.051c-0.25,7.401-0.74,14.809-1.541,22.27c-1.57,14.58-6.27,28.15-9.148,42.25
				c-1.031,5.071-3.781,9.91-3.16,15.302c0.939,8.25-0.881,16.599,2.59,24.858c3.119,7.439-1.881,13.529-9.74,14.199
				c-2.699,0.241-5.66,1.01-7.869,2.471c-5.51,3.651-10.68,7.812-15.939,11.812c-9.012,6.83-18.721,5.49-28.512,2.397
				c-3.75-1.189-5.408-4-5.209-8.09C14.27,192.087,18.629,185.349,26.559,181.167z"/>
			<path fill="#FFFFFF" d="M27.379,183.068c5-3.029,9.58-6.35,12.26-11.99c1.811-3.809,4.941-6.979,7.061-10.67
				c0.9-1.58,1.439-5.229,0.949-5.459c-4.52-2.191-3.709-6.46-4.1-9.98c-0.66-5.948-0.57-11.97-0.959-17.948
				c-0.871-13.461-1.83-26.92-2.762-40.381c4.182,9.108,10.631,15.59,21.141,16.211c9.9,0.589,19.02-1.871,26.721-9.683
				c-0.121,6.901-0.939,13.34-2.121,19.722c-0.699,3.75-1.918,7.409-2.979,11.08c-1.961,6.84-4.051,13.65-5.91,20.51
				c-0.58,2.14-0.871,4.451-0.811,6.66c0.15,5.149,0.971,10.31,0.82,15.438c-0.121,4.01,0.02,7.51,1.92,11.353
				c3.141,6.327-0.871,11.85-7.77,12.549c-3,0.3-6.221,1.339-8.74,2.979c-5.4,3.5-10.48,7.511-15.541,11.5
				c-8.189,6.472-17.088,5.17-26.109,2.629c-3.309-0.939-4.721-3.238-4.449-6.809C16.609,192.769,20.67,187.128,27.379,183.068z"/>
			<path fill="#010101" d="M41.098,14.771c18.59,17.869,37.131,16.34,56.779,3.238c0.441,1.909,1.381,3.7,1.102,5.28
				c-0.859,4.789-1.879,9.561-2.939,14.32l-1.24-0.281c-17.879,5.111-35.15,5.461-51.721-4.35c-0.869,4.98,0.17,7.952,3.801,9.77
				c-0.689,1.92-1.381,3.841-2.07,5.75c-0.719-0.699-1.43-1.398-2.148-2.1c0.328,9.09,11.859,13.061,20.908,11.68l0.291,1.972
				c-0.791,0.108-1.58,0.269-2.359,0.479c-6.67,1.808-13.371-1.041-19.352-7.391c0,4.948-0.098,9.631-0.148,14.131l-1.15-0.013
				c0.121-12.27-0.648-24.538-0.648-36.809C40.209,25.449,40.76,20.449,41.098,14.771z M88.369,35.699
				c6.98-2.051,7.141-4.081,6.061-12.52c-18.23,9.309-35.4,9.219-51.59-3.951c-1.77,5.051-0.439,9.35,3.881,12.17
				C59.789,39.968,74.15,39.878,88.369,35.699z"/>
			<path fill="#FFFFFF" d="M42.148,53.137c5.98,6.35,12.682,9.199,19.352,7.391c0.779-0.21,1.568-0.371,2.359-0.48
				c8.84-1.26,18.66,2.632,26.35-6.5c0.32,7.101,0.691,12.69,0.801,18.302c0.01,0.629,0.01,1.26-0.01,1.879
				c-0.441,12.42-7.721,24.721-24.102,26.66c-11.199,1.33-23.949-6.209-24.609-16.029C41.92,78.769,41.93,73.158,42,67.269
				C42.051,62.769,42.15,58.087,42.148,53.137z"/>
			<path fill="#FFFFFF" d="M94.43,23.179c1.08,8.439,0.92,10.469-6.061,12.52c-14.219,4.179-28.58,4.27-41.648-4.301
				c-4.32-2.82-5.652-7.119-3.881-12.17C59.029,32.398,76.201,32.488,94.43,23.179z"/>
			<path fill="#FFFFFF" d="M46.879,42.748l0.012-0.028c7.088,4.188,14.738,6.3,22.979,6.319c6.68,0.021,13.34,0.01,20.391,0.01
				c-3.631,5.73-8.121,8.75-14.949,8.24c-3.881-0.291-7.871,0.199-11.74,0.789c-9.051,1.381-20.58-2.59-20.91-11.68
				c0.719,0.702,1.43,1.4,2.15,2.1C45.5,46.587,46.189,44.667,46.879,42.748z"/>
			<path fill="#FFFFFF" d="M94.799,37.328c-2.279,6.15-7.42,10.18-13.08,9.621c-11.699-1.14-23.328-2.84-34.988-4.32
				c0.049,0.029,0.109,0.062,0.16,0.091l-0.012,0.028c-3.629-1.818-4.67-4.79-3.799-9.77C59.65,42.789,76.92,42.439,94.799,37.328z"
				/>
			<path fill="#010101" d="M81.721,46.95c5.66,0.56,10.801-3.471,13.08-9.621l1.24,0.281c-0.432,1.94-0.861,3.869-1.301,5.799
				c-0.658,2.881-2.279,5.73-2.229,8.57c0.109,7.291,0.09,14.541-0.16,21.801l-1.35-0.051c0.02-0.619,0.02-1.25,0.01-1.879
				c-0.111-5.612-0.482-11.201-0.801-18.302c-7.691,9.132-17.512,5.24-26.352,6.5l-0.289-1.971c3.869-0.59,7.859-1.08,11.74-0.789
				c6.828,0.51,11.318-2.51,14.949-8.24c-7.051,0-13.711,0.011-20.391-0.01c-8.24-0.019-15.889-2.131-22.979-6.319
				c-0.051-0.029-0.111-0.062-0.16-0.091C58.391,44.109,70.02,45.808,81.721,46.95z"/>
		</g>
	</g>
</g>
</svg>
