<?xml version="1.0" encoding="utf-8"?>
<!-- Generator: Adobe Illustrator 15.0.1, SVG Export Plug-In . SVG Version: 6.00 Build 0)  -->
<!DOCTYPE svg PUBLIC "-//W3C//DTD SVG 1.1//EN" "http://www.w3.org/Graphics/SVG/1.1/DTD/svg11.dtd">
<svg version="1.1" id="Layer_1" xmlns="http://www.w3.org/2000/svg" xmlns:xlink="http://www.w3.org/1999/xlink" x="0px" y="0px"
	 width="84.354px" height="171.668px" viewBox="0 0 84.354 171.668" enable-background="new 0 0 84.354 171.668"
	 xml:space="preserve">
<g id="left_arm">
	<g id="g65KD5_4_">
		<g>
			<path fill="#010101" d="M26.46,134.782c0.895,1.606,2.463,4.428,4.031,7.246c-2.895,0.539-5.785,1.08-9.209,1.721
				c0.432,1.143,1.354,2.717,1.57,4.383c0.236,1.81-0.188,3.703-0.322,5.562c-2.137-0.263-4.742,0.166-6.322-0.91
				c-5.568-3.797-7.604-9.978-7.355-16.154c0.584-14.593,2.049-29.151,3.119-43.726c0.078-1.045-0.098-2.123-0.26-3.17
				c-0.176-1.129-1-2.463-0.633-3.324c3.699-8.737,4.414-18.754,11.604-26.052c1.824-1.851,2.357-5.044,3.293-7.688
				c4.789-13.543,9.471-27.124,14.307-40.65c0.877-2.451,2.234-3.547,5.627-3.208c11.227,1.124,20.789,6.729,31.027,10.474
				c2.137,0.781,4.1,1.973,2.576,5.239c-3.18,6.819-6.646,13.627-8.729,20.808c-4.84,16.714-14.383,31.012-22.352,46.134
				c-0.84,1.596-0.812,3.643-1.217,5.475c-0.305,1.381-0.193,3.294-1.062,4.038c-5.418,4.645-4.291,10.448-3.32,16.284
				c0.137,0.819,0.613,1.642,0.537,2.424c-0.193,1.989,0.045,4.852-1.111,5.697c-1.311,0.961-4.02,0.41-5.986-0.057
				c-1.344-0.319-2.361-1.824-3.695-2.42c-1.188-0.529-3.191-1.176-3.789-0.629c-1.018,0.932-1.465,2.721-1.697,4.22
				C26.707,128.958,26.689,131.473,26.46,134.782z M37.982,28.66c-0.691,1.765-1.73,4.112-2.537,6.537
				c-1.1,3.307-2.053,6.665-3.016,10.016c-3.203,11.132-8.992,20.98-14.891,30.831c-3.244,5.417-2.213,7.257,3.621,9.677
				c6.086,2.524,12.07,5.302,18.229,7.63c1.205,0.457,3.867-0.152,4.385-1.088c8.84-15.918,19.166-31.106,24.195-48.935
				c0.99-3.518-0.242-4.817-3.303-5.799C56.013,34.753,47.416,31.81,37.982,28.66z M21.005,151.223
				c-0.803-1.996-1.168-3.807-2.146-5.178c-3.828-5.357-1.25-10.047,1.291-14.752c1.182-2.189,2.619-4.238,3.82-6.416
				c3.881-7.028,4.936-7.268,11.648-2.559c0.809,0.566,1.682,1.158,2.613,1.414c2.312,0.633,3.391-0.024,3.08-2.756
				c-0.697-6.148-1.127-12.328-1.727-19.181c-7.037-2.519-15.145-5.419-23.66-8.466c-1.111,4.146-2.734,7.916-3.049,11.792
				c-0.947,11.699-1.512,23.435-1.957,35.166C10.757,144.573,15.851,150.036,21.005,151.223z M74.042,29.926
				c0.293-0.773,0.584-1.547,0.877-2.321c-1.691-1.03-3.266-2.409-5.096-3.031c-8.328-2.831-16.707-5.527-25.137-8.044
				c-1.08-0.323-2.557,0.686-3.848,1.077c0.865,1.161,1.498,2.963,2.637,3.378c6.545,2.386,13.176,4.561,19.852,6.563
				C66.822,28.599,70.466,29.15,74.042,29.926z M71.792,35.237c0.238-0.598,0.477-1.196,0.715-1.794
				c-11.164-3.808-22.33-7.616-33.805-11.529C39.908,28.019,63.218,37.016,71.792,35.237z M43.4,99.573
				c0.189-0.648,0.381-1.297,0.568-1.944c-5.855-2.806-11.627-5.812-17.604-8.333c-2.986-1.26-6.324-1.768-9.553-2.324
				c-0.879-0.152-1.939,0.749-2.918,1.168c0.723,0.92,1.26,2.334,2.193,2.688c8.039,3.023,16.139,5.888,24.254,8.705
				C41.257,99.846,42.376,99.573,43.4,99.573z M78.296,25.325c-0.871-2.162-0.934-2.864-1.234-2.987
				c-9.973-4.075-19.938-8.166-30.002-12.005c-0.908-0.347-2.457,0.98-3.707,1.53c0.01,0.457,0.018,0.914,0.027,1.37
				C54.609,17.123,65.841,21.011,78.296,25.325z M28.373,140.508c-2.254-1.877-4.049-3.369-6.059-5.041
				C20.658,140.948,21.683,141.823,28.373,140.508z"/>
			<path fill="#FFFFFF" d="M37.982,28.66c9.434,3.149,18.031,6.094,26.684,8.869c3.061,0.981,4.295,2.281,3.303,5.799
				c-5.029,17.829-15.354,33.017-24.195,48.935c-0.518,0.936-3.18,1.543-4.385,1.088c-6.156-2.328-12.143-5.104-18.229-7.629
				c-5.834-2.421-6.865-4.261-3.621-9.678c5.898-9.851,11.688-19.698,14.891-30.831c0.965-3.351,1.916-6.708,3.018-10.016
				C36.251,32.771,37.289,30.424,37.982,28.66z"/>
			<path fill="#FFFFFF" d="M21.005,151.223c-5.156-1.188-10.25-6.649-10.086-10.936c0.447-11.731,1.01-23.466,1.959-35.166
				c0.312-3.876,1.936-7.646,3.049-11.792c8.516,3.047,16.623,5.948,23.66,8.466c0.598,6.852,1.027,13.031,1.727,19.181
				c0.311,2.73-0.77,3.389-3.082,2.756c-0.932-0.256-1.805-0.848-2.613-1.414c-6.713-4.709-7.766-4.471-11.646,2.559
				c-1.203,2.178-2.641,4.227-3.822,6.416c-2.539,4.706-5.117,9.395-1.289,14.752C19.839,147.417,20.203,149.227,21.005,151.223z"/>
			<path fill="#FFFFFF" d="M74.042,29.926c-3.576-0.776-7.221-1.329-10.715-2.377c-6.676-2.003-13.307-4.178-19.852-6.563
				c-1.139-0.415-1.771-2.217-2.637-3.378c1.291-0.392,2.768-1.4,3.848-1.077c8.43,2.517,16.809,5.214,25.137,8.044
				c1.83,0.622,3.402,2,5.096,3.031C74.626,28.379,74.335,29.153,74.042,29.926z"/>
			<path fill="#FFFFFF" d="M71.792,35.237c-8.574,1.777-31.885-7.219-33.09-13.323c11.475,3.913,22.641,7.721,33.805,11.529
				C72.269,34.042,72.031,34.64,71.792,35.237z"/>
			<path fill="#FFFFFF" d="M43.4,99.573c-1.023,0-2.145,0.273-3.059-0.043c-8.115-2.816-16.215-5.68-24.254-8.705
				c-0.936-0.352-1.471-1.766-2.193-2.688c0.979-0.418,2.039-1.318,2.918-1.168c3.229,0.557,6.566,1.064,9.553,2.324
				c5.977,2.521,11.748,5.527,17.604,8.333C43.781,98.276,43.591,98.923,43.4,99.573z"/>
			<path fill="#FFFFFF" d="M78.296,25.325c-12.455-4.313-23.686-8.202-34.916-12.091c-0.01-0.457-0.02-0.913-0.027-1.37
				c1.25-0.55,2.799-1.877,3.707-1.53c10.062,3.839,20.029,7.93,30.002,12.005C77.363,22.46,77.425,23.163,78.296,25.325z"/>
			<path fill="#FFFFFF" d="M28.373,140.508c-6.689,1.314-7.715,0.439-6.059-5.041C24.324,137.139,26.119,138.631,28.373,140.508z"/>
		</g>
	</g>
</g>
</svg>
