<?xml version="1.0" encoding="utf-8"?>
<!-- Generator: Adobe Illustrator 15.0.1, SVG Export Plug-In . SVG Version: 6.00 Build 0)  -->
<!DOCTYPE svg PUBLIC "-//W3C//DTD SVG 1.1//EN" "http://www.w3.org/Graphics/SVG/1.1/DTD/svg11.dtd">
<svg version="1.1" id="Layer_1" xmlns="http://www.w3.org/2000/svg" xmlns:xlink="http://www.w3.org/1999/xlink" x="0px" y="0px"
	 width="95.918px" height="147.234px" viewBox="0 0 95.918 147.234" enable-background="new 0 0 95.918 147.234"
	 xml:space="preserve">
<g id="right_shoulder">
	<g id="left_shoulder_6_">
		<g>
			<path fill="#FFFFFF" d="M4.413,125.12c0.865,1.161,1.498,2.963,2.637,3.378c6.547,2.385,13.176,4.561,19.852,6.562
				c3.494,1.049,7.139,1.602,10.715,2.378c0.279-0.738,0.559-1.478,0.836-2.216c0.479-0.258,0.939-0.621,1.361-1.114
				c0.434-0.509,0.848-1.028,1.256-1.55c0.27,0.093,0.531,0.183,0.801,0.277c-0.131-0.328-0.238-0.611-0.338-0.875
				c0.404-0.533,0.783-1.076,1.166-1.619c0.709-4.799,4.396-9.412,6.98-13.289c0.256-0.385,0.557-0.67,0.881-0.888
				c0.475-1.012,0.947-2.026,1.416-3.042c2.207-3.876,4.176-7.896,5.953-12.027c0.412-0.957,0.531-1.891,0.441-2.762
				c2.736-4.465,5.434-8.951,7.893-13.572c0.389-0.73,0.557-1.469,0.584-2.188c1.348-2.398,2.615-4.839,3.758-7.345
				c2.295-4.13,4.334-8.404,5.828-12.994c1.709-5.245-24.447-16.647-27.57-16.172c-1.236-0.894-2.92-1.26-4.443-0.956
				c-2.463-0.965-5.795,0.067-6.961,3.136c-2.906,7.64-4.846,15.558-6.879,23.456c-0.064,0.15-0.133,0.301-0.197,0.45
				c-3.277,7.478-6.957,14.571-10.906,21.69c-4.422,6.221-7.119,13.451-9.352,20.737c-0.361,1.179-0.252,2.275,0.16,3.213
				c-0.922,0.015-2.254,1.101-3.355,1.584c0.008,0.457,0.018,0.913,0.025,1.37c1.23,0.426,2.461,0.852,3.691,1.279
				c0.188,1.49,1.143,2.738,2.412,3.478c-1.598-0.491-3.193-0.98-4.795-1.459C7.184,123.719,5.708,124.729,4.413,125.12z
				 M26.194,129.682c0.094-0.084,0.191-0.146,0.285-0.239c0.174-0.175,0.338-0.354,0.508-0.531c0.598,0.306,1.242,0.513,1.896,0.601
				c0.092,0.424,0.232,0.826,0.42,1.203C28.268,130.368,27.233,130.023,26.194,129.682z M15.366,126.213
				c0.527,0.035,1.059-0.007,1.574-0.152c0.41-0.113,0.791-0.256,1.178-0.395c-0.002,0.51,0.059,1.006,0.195,1.477
				C17.331,126.831,16.35,126.52,15.366,126.213z"/>
			<path fill="#010101" d="M38.178,38.546c-1.529-5.581-1.416-5.761,7.104-9.772c-0.127-5.601,0.266-5.964,8.867-7.778
				c-0.645-6.745,3.488-8.251,9.312-7.758c0.666,0.057,1.734-0.384,2.039-0.922c3.305-5.83,8.57-5.929,14.266-5.266
				c-2.371,9.309,0.344,17.782,3.355,26.132c1.574,4.363,3.734,8.523,5.75,12.717c1.168,2.432,0.955,3.696-1.91,4.845
				c-3.809,1.528-7.334,3.801-10.906,5.882c-7.682,4.471-15.863,2.904-23.891,1.819c-5.381-0.728-10.645-2.325-16.271-3.604
				c0.244-0.167-0.008-0.08-0.016,0.022c-0.441,7.282-3.822,13.677-6.123,20.398c-0.262,0.765-0.037,1.737-0.404,2.418
				c-5.277,9.826-10.752,19.55-15.865,29.461c-1.547,3-2.172,6.484-3.15,9.768c-0.57,1.918-1.006,3.877-1.871,5.717
				c-2.004-9.396,3.152-16.51,7.158-24.021c1.857-3.484,3.453-7.108,5.129-10.688c0.492-1.052,0.766-2.208,1.283-3.245
				c3.207-6.428,6.467-12.832,9.682-19.256c0.365-0.729,0.758-1.527,0.807-2.314c0.32-5.112,0.09-10.313,0.98-15.316
				C34.034,44.81,36.284,42.143,38.178,38.546z M83.999,50.134c0.215-0.461,0.43-0.923,0.645-1.384
				c-9.258-8.304-15.268-18.585-19.418-30.174c-0.443-1.239-4.326-1.246-6.615-1.825c-0.4,1.691-1.625,3.736-1.074,5.016
				c4.191,9.736,10.1,18.343,18.604,24.829C78.364,48.294,81.36,48.983,83.999,50.134z M72.624,48.387
				c-5.127-7.186-10.086-13.916-14.783-20.824c-2.166-3.184-6.254-4.975-8.494-2.455c-1.148,1.29-0.922,5.037,0.127,6.833
				c4.689,8.04,12.561,12.483,20.521,16.649C70.698,48.958,71.852,48.464,72.624,48.387z M45.571,31.964
				c-5.705,1.837-6.793,3.231-4.543,6.541c5.844,8.595,14.344,12.477,24.352,13.53c2.416,0.254,4.881,0.038,8.072,0.038
				c-5.84-3.146-11.004-5.279-15.395-8.473C53.59,40.351,49.881,36.056,45.571,31.964z M73.385,9.591
				c-6.244,2.667-7.57,4.776-4.605,10.848c3.699,7.575,8.246,14.744,12.596,21.987c0.689,1.15,2.268,1.768,3.502,2.683
				C80.954,32.979,77.221,21.446,73.385,9.591z M72.147,56.786c-0.014-0.595-0.027-1.189-0.039-1.784
				c-12.166-0.456-23.594-2.689-32.383-13.991c-1.645,3.265-4.156,5.961-3.668,7.902c0.523,2.079,3.672,4.495,6.021,4.94
				c8.641,1.64,17.418,2.573,26.16,3.635C69.495,57.64,70.842,57.038,72.147,56.786z"/>
			<path fill="#010101" d="M40.842,133.307c9.861-18.043,19.727-36.084,29.59-54.127C56.299,94.834,49.75,114.721,39.2,132.375
				C39.749,132.686,40.295,132.996,40.842,133.307z"/>
			<path fill="#FFFFFF" d="M84.645,48.75c-9.26-8.304-15.268-18.585-19.418-30.174c-0.443-1.239-4.326-1.246-6.615-1.825
				c-0.402,1.691-1.627,3.736-1.076,5.016c4.191,9.736,10.1,18.343,18.604,24.829c2.225,1.698,5.221,2.387,7.861,3.539
				C84.215,49.674,84.43,49.213,84.645,48.75z"/>
			<path fill="#FFFFFF" d="M57.84,27.563c-2.166-3.184-6.254-4.975-8.494-2.455c-1.148,1.29-0.922,5.037,0.127,6.833
				c4.689,8.04,12.561,12.483,20.521,16.649c0.703,0.368,1.857-0.126,2.629-0.203C67.497,41.201,62.538,34.471,57.84,27.563z"/>
			<path fill="#FFFFFF" d="M41.028,38.505c5.844,8.595,14.344,12.477,24.352,13.53c2.416,0.254,4.881,0.038,8.072,0.038
				c-5.84-3.146-11.004-5.279-15.395-8.473c-4.469-3.249-8.176-7.544-12.486-11.635C39.866,33.802,38.778,35.196,41.028,38.505z"/>
			<path fill="#FFFFFF" d="M68.778,20.439c3.701,7.575,8.246,14.744,12.596,21.987c0.691,1.15,2.27,1.768,3.502,2.683
				c-3.924-12.131-7.654-23.663-11.49-35.518C67.141,12.258,65.815,14.366,68.778,20.439z"/>
			<path fill="#FFFFFF" d="M72.108,55.001c-12.166-0.456-23.594-2.688-32.383-13.991c-1.645,3.265-4.156,5.961-3.668,7.902
				c0.523,2.079,3.672,4.495,6.021,4.94c8.641,1.64,17.418,2.573,26.16,3.635c1.256,0.152,2.604-0.45,3.908-0.702
				C72.133,56.191,72.12,55.596,72.108,55.001z"/>
		</g>
	</g>
</g>
</svg>
