<?xml version="1.0" encoding="utf-8"?>
<!-- Generator: Adobe Illustrator 15.0.1, SVG Export Plug-In . SVG Version: 6.00 Build 0)  -->
<!DOCTYPE svg PUBLIC "-//W3C//DTD SVG 1.1//EN" "http://www.w3.org/Graphics/SVG/1.1/DTD/svg11.dtd">
<svg version="1.1" id="Layer_1" xmlns="http://www.w3.org/2000/svg" xmlns:xlink="http://www.w3.org/1999/xlink" x="0px" y="0px"
	 width="86.395px" height="195.689px" viewBox="0 0 86.395 195.689" enable-background="new 0 0 86.395 195.689"
	 xml:space="preserve">
<g id="right_thigh_2_">
	<g id="right_thigh_1_">
		<g>
			<path fill="#FFFFFF" d="M79.321,55.65c-0.23,8.152-2.828,15.62-3.928,23.578c-0.295,2.135-1.184,4.264-2.422,6.268
				c-0.004,0.022-0.008,0.044-0.01,0.065c-2.385,14.865-5.891,29.393-9.682,43.935c0.037,0.604,0.057,1.21,0.041,1.82
				c-0.051,2.115-0.236,4.235-0.52,6.347c0.055,0.663,0.113,1.325,0.188,1.987c0.529,4.788-1.373,9.75-4.383,13.828
				c-0.111,2.05-0.566,4.046-1.146,5.944c-0.061,0.336-0.285,0.669-0.355,1.021c-0.539,2.701-1.832,5.464-3.582,7.942
				c-2.891,4.911-8.488,8.606-13.816,10.072c-6.195,1.704-12.951,0.828-18.494-2.419c-5.363-3.144-9.375-8.345-11.025-14.344
				c-0.598-2.226-0.871-4.451-0.842-6.678c-0.031-2.093,0.229-4.185,0.734-6.214c0.018-0.308,0.064-0.608,0.092-0.913
				c-0.678-2.221-1-4.546-0.848-6.908c0.08-1.228,0.27-2.438,0.334-3.667c0.094-1.81,0.369-3.577,0.797-5.283
				c0.443-3.701,0.885-7.399,1.395-11.097c0.062-0.454,0.162-0.907,0.279-1.359c0.941-7.064,2.051-14.099,3.227-21.131
				c0.529-3.148,1.049-6.302,1.52-9.461c0.115-0.894,0.246-1.916,0.293-2.377c0.188-1.874,0.346-3.747,0.49-5.625
				c1.248-16.197,3.58-32.418,7.262-48.245c3.213-13.803,18.74-21.803,31.984-18.16c10.471,2.881,17.191,11.559,18.619,21.496
				c1.486,3.779,2.223,7.409,2.447,11.059C78.917,49.811,79.407,52.677,79.321,55.65z"/>
			<path fill="#010101" d="M79.386,64.317c-0.273,0.354-0.699,0.666-0.799,1.062c-3.885,15.649-7.928,31.263-11.52,46.981
				c-1.91,8.355-3.756,16.847-4.305,25.363c-0.559,8.646-0.488,17.233-4.041,25.365c-0.561,1.282-0.566,2.809-0.83,4.221
				c2.713-4.566,5.137-9.304,6.053-14.318c1.322-7.252,0.908-14.834,2.369-22.047c4.25-20.974,9.076-41.833,13.646-62.743
				c0.266-1.216,0.264-2.489,0.387-3.736C80.026,64.417,79.706,64.368,79.386,64.317z"/>
			<path fill="#010101" d="M20.534,42.179C17.261,77.782,9.222,112.763,7.231,148.532c5.23-35.35,10.461-70.697,15.689-106.046
				C22.126,42.384,21.329,42.281,20.534,42.179z"/>
		</g>
	</g>
</g>
</svg>
