<?xml version="1.0" encoding="utf-8"?>
<!-- Generator: Adobe Illustrator 15.0.1, SVG Export Plug-In . SVG Version: 6.00 Build 0)  -->
<!DOCTYPE svg PUBLIC "-//W3C//DTD SVG 1.1//EN" "http://www.w3.org/Graphics/SVG/1.1/DTD/svg11.dtd">
<svg version="1.1" id="Layer_1" xmlns="http://www.w3.org/2000/svg" xmlns:xlink="http://www.w3.org/1999/xlink" x="0px" y="0px"
	 width="95.918px" height="147.234px" viewBox="0 0 95.918 147.234" enable-background="new 0 0 95.918 147.234"
	 xml:space="preserve">
<g id="right_shoulder">
	<g id="left_shoulder_6_">
		<g>
			<path fill="#FFFFFF" d="M85.687,124.042c-1.602,0.479-3.197,0.968-4.795,1.459c1.27-0.739,2.225-1.987,2.412-3.478
				c1.23-0.428,2.461-0.854,3.691-1.279c0.008-0.457,0.018-0.913,0.025-1.37c-1.102-0.483-2.434-1.569-3.355-1.584
				c0.412-0.938,0.521-2.034,0.16-3.213c-2.232-7.286-4.93-14.517-9.352-20.737c-3.949-7.119-7.629-14.213-10.906-21.69
				c-0.064-0.149-0.133-0.3-0.197-0.45c-2.033-7.898-3.973-15.816-6.879-23.456c-1.166-3.069-4.498-4.101-6.961-3.136
				c-1.523-0.304-3.207,0.062-4.443,0.956c-3.123-0.475-29.279,10.927-27.57,16.172c1.494,4.59,3.533,8.864,5.828,12.994
				c1.143,2.506,2.41,4.946,3.758,7.345c0.027,0.719,0.195,1.457,0.584,2.188c2.459,4.621,5.156,9.107,7.893,13.572
				c-0.09,0.871,0.029,1.805,0.441,2.762c1.777,4.132,3.746,8.151,5.953,12.027c0.469,1.016,0.941,2.03,1.416,3.042
				c0.324,0.218,0.625,0.503,0.881,0.888c2.584,3.877,6.271,8.49,6.98,13.289c0.383,0.543,0.762,1.086,1.166,1.619
				c-0.1,0.264-0.207,0.547-0.338,0.875c0.27-0.095,0.531-0.185,0.801-0.277c0.408,0.521,0.822,1.041,1.256,1.55
				c0.422,0.493,0.883,0.856,1.361,1.114c0.277,0.738,0.557,1.478,0.836,2.216c3.576-0.776,7.221-1.329,10.715-2.378
				c6.676-2.002,13.305-4.178,19.852-6.562c1.139-0.415,1.771-2.217,2.637-3.378C88.242,124.729,86.765,123.719,85.687,124.042z
				 M64.646,130.715c0.188-0.377,0.328-0.779,0.42-1.203c0.654-0.088,1.299-0.295,1.896-0.601c0.17,0.177,0.334,0.356,0.508,0.531
				c0.094,0.093,0.191,0.155,0.285,0.239C66.716,130.023,65.681,130.368,64.646,130.715z M75.636,127.143
				c0.137-0.471,0.197-0.967,0.195-1.477c0.387,0.139,0.768,0.281,1.178,0.395c0.516,0.146,1.047,0.188,1.574,0.152
				C77.599,126.52,76.619,126.831,75.636,127.143z"/>
			<path fill="#010101" d="M60.447,47.784c0.891,5.003,0.66,10.204,0.98,15.316c0.049,0.787,0.441,1.585,0.807,2.314
				c3.215,6.424,6.475,12.828,9.682,19.256c0.518,1.037,0.791,2.193,1.283,3.245c1.676,3.58,3.271,7.204,5.129,10.688
				c4.006,7.512,9.162,14.625,7.158,24.021c-0.865-1.84-1.301-3.799-1.871-5.717c-0.979-3.283-1.604-6.768-3.15-9.768
				c-5.113-9.911-10.588-19.635-15.865-29.461c-0.367-0.681-0.143-1.653-0.404-2.418c-2.301-6.722-5.682-13.116-6.123-20.398
				c-0.008-0.102-0.26-0.189-0.016-0.022c-5.627,1.279-10.891,2.876-16.271,3.604c-8.027,1.085-16.209,2.652-23.891-1.819
				c-3.572-2.081-7.098-4.354-10.906-5.882c-2.865-1.149-3.078-2.413-1.91-4.845c2.016-4.194,4.176-8.354,5.75-12.717
				c3.012-8.35,5.727-16.823,3.355-26.132c5.695-0.663,10.961-0.564,14.266,5.266c0.305,0.538,1.373,0.979,2.039,0.922
				c5.824-0.493,9.957,1.013,9.312,7.758c8.602,1.814,8.994,2.177,8.867,7.778c8.52,4.011,8.633,4.191,7.104,9.772
				C57.666,42.143,59.916,44.81,60.447,47.784z M17.81,46.596c8.504-6.486,14.412-15.093,18.604-24.829
				c0.551-1.28-0.674-3.325-1.074-5.016c-2.289,0.579-6.172,0.586-6.615,1.825c-4.15,11.589-10.16,21.87-19.418,30.174
				c0.215,0.461,0.43,0.923,0.645,1.384C12.589,48.983,15.585,48.294,17.81,46.596z M23.955,48.59
				c7.961-4.166,15.832-8.609,20.521-16.649c1.049-1.796,1.275-5.543,0.127-6.833c-2.24-2.52-6.328-0.729-8.494,2.455
				c-4.697,6.908-9.656,13.638-14.783,20.824C22.097,48.464,23.251,48.958,23.955,48.59z M35.892,43.6
				c-4.391,3.194-9.555,5.327-15.395,8.473c3.191,0,5.656,0.216,8.072-0.038c10.008-1.053,18.508-4.935,24.352-13.53
				c2.25-3.31,1.162-4.704-4.543-6.541C44.068,36.056,40.359,40.351,35.892,43.6z M9.072,45.109
				c1.234-0.915,2.812-1.533,3.502-2.683c4.35-7.243,8.896-14.412,12.596-21.987c2.965-6.072,1.639-8.181-4.605-10.848
				C16.728,21.446,12.996,32.979,9.072,45.109z M25.71,57.488c8.742-1.062,17.52-1.995,26.16-3.635
				c2.35-0.445,5.498-2.861,6.021-4.94c0.488-1.941-2.023-4.637-3.668-7.902c-8.789,11.302-20.217,13.535-32.383,13.991
				c-0.012,0.595-0.025,1.189-0.039,1.784C23.107,57.038,24.455,57.64,25.71,57.488z"/>
			<path fill="#010101" d="M54.75,132.375c-10.551-17.654-17.1-37.541-31.232-53.195c9.863,18.043,19.729,36.084,29.59,54.127
				C53.654,132.996,54.201,132.686,54.75,132.375z"/>
			<path fill="#FFFFFF" d="M9.949,50.135c2.641-1.152,5.637-1.841,7.861-3.539c8.504-6.486,14.412-15.093,18.604-24.829
				c0.551-1.28-0.674-3.325-1.076-5.016c-2.289,0.579-6.172,0.586-6.615,1.825c-4.15,11.589-10.158,21.87-19.418,30.174
				C9.519,49.213,9.734,49.674,9.949,50.135z"/>
			<path fill="#FFFFFF" d="M21.326,48.387c0.771,0.077,1.926,0.571,2.629,0.203c7.961-4.166,15.832-8.609,20.521-16.649
				c1.049-1.796,1.275-5.543,0.127-6.833c-2.24-2.52-6.328-0.729-8.494,2.455C31.412,34.471,26.453,41.201,21.326,48.387z"/>
			<path fill="#FFFFFF" d="M48.378,31.965c-4.311,4.091-8.018,8.386-12.486,11.635c-4.391,3.194-9.555,5.327-15.395,8.473
				c3.191,0,5.656,0.216,8.072-0.038c10.008-1.053,18.508-4.935,24.352-13.53C55.171,35.196,54.083,33.802,48.378,31.965z"/>
			<path fill="#FFFFFF" d="M20.564,9.591c-3.836,11.855-7.566,23.387-11.49,35.518c1.232-0.915,2.811-1.533,3.502-2.683
				c4.35-7.243,8.895-14.412,12.596-21.987C28.134,14.366,26.808,12.258,20.564,9.591z"/>
			<path fill="#FFFFFF" d="M21.802,56.785c1.305,0.252,2.652,0.854,3.908,0.702c8.742-1.062,17.52-1.995,26.16-3.635
				c2.35-0.445,5.498-2.861,6.021-4.94c0.488-1.941-2.023-4.637-3.668-7.902c-8.789,11.302-20.217,13.535-32.383,13.991
				C21.83,55.596,21.816,56.191,21.802,56.785z"/>
		</g>
	</g>
</g>
</svg>
