<?xml version="1.0" encoding="utf-8"?>
<!-- Generator: Adobe Illustrator 15.0.1, SVG Export Plug-In . SVG Version: 6.00 Build 0)  -->
<!DOCTYPE svg PUBLIC "-//W3C//DTD SVG 1.1//EN" "http://www.w3.org/Graphics/SVG/1.1/DTD/svg11.dtd">
<svg version="1.1" id="Layer_1" xmlns="http://www.w3.org/2000/svg" xmlns:xlink="http://www.w3.org/1999/xlink" x="0px" y="0px"
	 width="108.163px" height="218.368px" viewBox="0 0 108.163 218.368" enable-background="new 0 0 108.163 218.368"
	 xml:space="preserve">
<g id="right_foot">
	<g>
		<g id="XMLID_7_">
			<path fill="#010101" d="M99.014,201.248c0.199,4.09-1.459,6.9-5.209,8.09c-9.791,3.093-19.5,4.433-28.512-2.397
				c-5.26-4-10.43-8.16-15.939-11.812c-2.209-1.461-5.17-2.229-7.869-2.471c-7.859-0.67-12.859-6.76-9.74-14.199
				c3.471-8.26,1.65-16.608,2.59-24.858c0.621-5.392-2.129-10.23-3.16-15.302c-2.879-14.1-7.578-27.67-9.148-42.25
				c-0.801-7.461-1.291-14.868-1.541-22.27l1.35-0.051c0.441,12.42,7.723,24.721,24.102,26.66
				c11.201,1.33,23.951-6.209,24.609-16.029c0.371-5.59,0.359-11.201,0.291-17.09l1.148-0.013c0.07,6.371,0.371,12.74,1.15,19.111
				c-0.01,0.029-0.021,0.049-0.029,0.08c-0.031-0.07-0.051-0.131-0.07-0.201c-0.01,0.131-0.02,0.26-0.029,0.392
				c-4.182,9.108-10.631,15.59-21.141,16.211c-9.9,0.59-19.021-1.871-26.721-9.683c0.121,6.9,0.939,13.34,2.121,19.722
				c0.699,3.75,1.92,7.409,2.979,11.08c1.961,6.84,4.051,13.649,5.91,20.51c0.58,2.141,0.869,4.451,0.811,6.66
				c-0.15,5.149-0.971,10.311-0.82,15.438c0.121,4.01-0.02,7.51-1.92,11.353c-3.141,6.327,0.869,11.85,7.77,12.549
				c3,0.301,6.221,1.34,8.74,2.979c5.4,3.5,10.48,7.511,15.541,11.5c8.189,6.472,17.09,5.17,26.109,2.629
				c3.311-0.938,4.721-3.237,4.449-6.809c-0.609-8.01-4.67-13.65-11.379-17.711c-5-3.029-9.58-6.351-12.262-11.99
				c-1.811-3.809-4.939-6.979-7.061-10.67c-0.898-1.58-1.439-5.229-0.949-5.459c4.521-2.19,3.711-6.461,4.1-9.979
				c0.66-5.949,0.57-11.972,0.961-17.949c0.869-13.461,1.83-26.92,2.76-40.381c0.041-0.062,0.061-0.131,0.102-0.189
				c0.629,1.949,1.779,3.92,1.68,5.83c-0.93,17.279-2.09,34.559-3.189,51.83c-0.08,1.33-0.021,2.729-0.43,3.969
				c-1.721,5.201-2.012,10.142,0.639,15.312c3.592,7.01,7,13.84,14.471,17.778C94.205,185.349,98.564,192.087,99.014,201.248z"/>
			<path fill="#FFFFFF" d="M96.834,200.779c0.271,3.57-1.141,5.869-4.449,6.809c-9.021,2.541-17.92,3.843-26.109-2.629
				c-5.061-3.989-10.141-8-15.541-11.5c-2.52-1.641-5.74-2.68-8.74-2.979c-6.898-0.699-10.91-6.222-7.77-12.549
				c1.9-3.843,2.041-7.343,1.92-11.353c-0.15-5.129,0.67-10.289,0.82-15.438c0.061-2.209-0.23-4.521-0.811-6.66
				c-1.859-6.859-3.949-13.67-5.91-20.51c-1.061-3.671-2.279-7.33-2.979-11.08c-1.182-6.382-2-12.82-2.121-19.722
				c7.701,7.812,16.82,10.271,26.721,9.683c10.51-0.621,16.959-7.103,21.141-16.211c-0.932,13.461-1.891,26.92-2.762,40.381
				c-0.389,5.979-0.299,12-0.959,17.948c-0.391,3.521,0.42,7.789-4.1,9.98c-0.49,0.23,0.049,3.879,0.949,5.459
				c2.119,3.691,5.25,6.861,7.061,10.67c2.68,5.641,7.26,8.961,12.26,11.99C92.164,187.128,96.225,192.769,96.834,200.779z"/>
			<path fill="#010101" d="M72.633,30.449c0,12.271-0.77,24.539-0.648,36.809l-1.15,0.013c-0.051-4.5-0.148-9.183-0.148-14.131
				c-5.98,6.35-12.682,9.198-19.352,7.391c-0.779-0.211-1.568-0.371-2.359-0.479l0.291-1.972c9.049,1.381,20.58-2.59,20.908-11.68
				c-0.719,0.701-1.43,1.4-2.148,2.1c-0.689-1.909-1.381-3.83-2.07-5.75c3.631-1.817,4.67-4.789,3.801-9.77
				c-16.57,9.811-33.842,9.461-51.721,4.35l-1.24,0.281c-1.061-4.76-2.08-9.531-2.939-14.32c-0.279-1.58,0.66-3.371,1.102-5.28
				c19.648,13.102,38.189,14.631,56.779-3.238C72.074,20.449,72.625,25.449,72.633,30.449z M66.113,31.398
				c4.32-2.82,5.65-7.119,3.881-12.17c-16.189,13.17-33.359,13.26-51.59,3.951c-1.08,8.438-0.92,10.469,6.061,12.52
				C38.684,39.878,53.045,39.968,66.113,31.398z"/>
			<path fill="#FFFFFF" d="M70.834,67.269c0.07,5.889,0.08,11.5-0.289,17.09c-0.66,9.82-13.41,17.359-24.609,16.029
				c-16.381-1.939-23.66-14.24-24.102-26.66c-0.02-0.619-0.02-1.25-0.01-1.879c0.109-5.611,0.48-11.201,0.801-18.302
				c7.689,9.132,17.51,5.24,26.35,6.5c0.791,0.109,1.58,0.271,2.359,0.48c6.67,1.809,13.371-1.041,19.352-7.391
				C70.684,58.087,70.783,62.769,70.834,67.269z"/>
			<path fill="#FFFFFF" d="M69.994,19.228c1.771,5.051,0.439,9.35-3.881,12.17c-13.068,8.57-27.43,8.479-41.648,4.301
				c-6.98-2.051-7.141-4.08-6.061-12.52C36.633,32.488,53.805,32.398,69.994,19.228z"/>
			<path fill="#FFFFFF" d="M68.023,48.498c0.721-0.699,1.432-1.397,2.15-2.1c-0.33,9.09-11.859,13.061-20.91,11.68
				c-3.869-0.59-7.859-1.08-11.74-0.789c-6.828,0.51-11.318-2.51-14.949-8.24c7.051,0,13.711,0.011,20.391-0.01
				c8.24-0.02,15.891-2.131,22.979-6.319l0.012,0.028C66.645,44.667,67.334,46.587,68.023,48.498z"/>
			<path fill="#FFFFFF" d="M69.754,32.978c0.871,4.979-0.17,7.951-3.799,9.77l-0.012-0.028c0.051-0.029,0.111-0.062,0.16-0.091
				c-11.66,1.48-23.289,3.181-34.988,4.32c-5.66,0.559-10.801-3.471-13.08-9.621C35.914,42.439,53.184,42.789,69.754,32.978z"/>
			<path fill="#010101" d="M66.104,42.628c-0.049,0.029-0.109,0.062-0.16,0.091c-7.09,4.188-14.738,6.301-22.979,6.319
				c-6.68,0.021-13.34,0.01-20.391,0.01c3.631,5.73,8.121,8.75,14.949,8.24c3.881-0.291,7.871,0.199,11.74,0.789l-0.289,1.971
				c-8.84-1.26-18.66,2.632-26.352-6.5c-0.318,7.101-0.689,12.689-0.801,18.302c-0.01,0.629-0.01,1.26,0.01,1.879l-1.35,0.051
				c-0.25-7.26-0.27-14.51-0.16-21.801c0.051-2.84-1.57-5.689-2.229-8.57c-0.439-1.93-0.869-3.858-1.301-5.799l1.24-0.281
				c2.279,6.15,7.42,10.181,13.08,9.621C42.814,45.808,54.443,44.109,66.104,42.628z"/>
		</g>
	</g>
</g>
</svg>
