<?xml version="1.0" encoding="utf-8"?>
<!-- Generator: Adobe Illustrator 15.0.1, SVG Export Plug-In . SVG Version: 6.00 Build 0)  -->
<!DOCTYPE svg PUBLIC "-//W3C//DTD SVG 1.1//EN" "http://www.w3.org/Graphics/SVG/1.1/DTD/svg11.dtd">
<svg version="1.1" id="Layer_1" xmlns="http://www.w3.org/2000/svg" xmlns:xlink="http://www.w3.org/1999/xlink" x="0px" y="0px"
	 width="84.354px" height="171.668px" viewBox="0 0 84.354 171.668" enable-background="new 0 0 84.354 171.668"
	 xml:space="preserve">
<g id="left_arm">
	<g id="g65KD5_4_">
		<g>
			<path fill="#010101" d="M61.796,126.498c-0.232-1.499-0.68-3.288-1.697-4.22c-0.598-0.547-2.602,0.1-3.789,0.629
				c-1.334,0.596-2.352,2.101-3.695,2.42c-1.967,0.467-4.676,1.018-5.986,0.057c-1.156-0.846-0.918-3.708-1.111-5.697
				c-0.076-0.782,0.4-1.604,0.537-2.424c0.971-5.836,2.098-11.64-3.32-16.284c-0.869-0.744-0.758-2.657-1.062-4.038
				c-0.404-1.832-0.377-3.879-1.217-5.475c-7.969-15.122-17.512-29.42-22.352-46.134c-2.082-7.181-5.549-13.989-8.729-20.808
				c-1.523-3.266,0.439-4.458,2.576-5.239c10.238-3.745,19.801-9.35,31.027-10.474c3.393-0.339,4.75,0.757,5.627,3.208
				c4.836,13.526,9.518,27.107,14.307,40.65c0.936,2.644,1.469,5.837,3.293,7.688c7.189,7.298,7.904,17.315,11.604,26.052
				c0.367,0.861-0.457,2.195-0.633,3.324c-0.162,1.047-0.338,2.125-0.26,3.17c1.07,14.574,2.535,29.133,3.119,43.726
				c0.248,6.177-1.787,12.357-7.355,16.154c-1.58,1.076-4.186,0.647-6.322,0.91c-0.135-1.858-0.559-3.752-0.322-5.562
				c0.217-1.666,1.139-3.24,1.57-4.383c-3.424-0.641-6.314-1.182-9.209-1.721c1.568-2.818,3.137-5.64,4.031-7.246
				C62.199,131.473,62.181,128.958,61.796,126.498z M24.222,37.528c-3.061,0.982-4.293,2.281-3.303,5.799
				c5.029,17.829,15.355,33.017,24.195,48.935c0.518,0.936,3.18,1.545,4.385,1.088c6.158-2.328,12.143-5.105,18.229-7.63
				c5.834-2.42,6.865-4.26,3.621-9.677c-5.898-9.851-11.688-19.699-14.891-30.831c-0.963-3.351-1.916-6.709-3.016-10.016
				c-0.807-2.425-1.846-4.772-2.537-6.537C41.472,31.81,32.875,34.753,24.222,37.528z M77.968,140.289
				c-0.445-11.731-1.01-23.467-1.957-35.166c-0.314-3.876-1.938-7.646-3.049-11.792c-8.516,3.047-16.623,5.947-23.66,8.466
				c-0.6,6.853-1.029,13.032-1.727,19.181c-0.311,2.731,0.768,3.389,3.08,2.756c0.932-0.256,1.805-0.848,2.613-1.414
				c6.713-4.709,7.768-4.47,11.648,2.559c1.201,2.178,2.639,4.227,3.82,6.416c2.541,4.705,5.119,9.395,1.291,14.752
				c-0.979,1.371-1.344,3.182-2.146,5.178C73.037,150.036,78.13,144.573,77.968,140.289z M25.56,27.548
				c6.676-2.002,13.307-4.177,19.852-6.563c1.139-0.415,1.771-2.217,2.637-3.378c-1.291-0.391-2.768-1.4-3.848-1.077
				c-8.43,2.517-16.809,5.213-25.137,8.044c-1.83,0.622-3.404,2.001-5.096,3.031c0.293,0.774,0.584,1.548,0.877,2.321
				C18.421,29.15,22.066,28.599,25.56,27.548z M50.185,21.915C38.71,25.828,27.544,29.635,16.38,33.443
				c0.238,0.598,0.477,1.196,0.715,1.794C25.669,37.016,48.98,28.019,50.185,21.915z M48.546,99.532
				c8.115-2.817,16.215-5.682,24.254-8.705c0.934-0.354,1.471-1.768,2.193-2.688c-0.979-0.419-2.039-1.32-2.918-1.168
				c-3.229,0.557-6.566,1.064-9.553,2.324c-5.977,2.521-11.748,5.527-17.604,8.333c0.188,0.647,0.379,1.296,0.568,1.944
				C46.511,99.573,47.63,99.846,48.546,99.532z M45.507,13.232c0.01-0.456,0.018-0.913,0.027-1.37
				c-1.25-0.55-2.799-1.877-3.707-1.53c-10.064,3.839-20.029,7.93-30.002,12.005c-0.301,0.123-0.363,0.825-1.234,2.987
				C23.046,21.011,34.279,17.123,45.507,13.232z M66.574,135.467c-2.01,1.672-3.805,3.164-6.059,5.041
				C67.205,141.823,68.23,140.948,66.574,135.467z"/>
			<path fill="#FFFFFF" d="M53.441,35.196c1.102,3.308,2.053,6.665,3.018,10.016c3.203,11.133,8.992,20.98,14.891,30.831
				c3.244,5.417,2.213,7.257-3.621,9.678c-6.086,2.524-12.072,5.301-18.229,7.629c-1.205,0.455-3.867-0.152-4.385-1.088
				c-8.842-15.918-19.166-31.105-24.195-48.935c-0.992-3.518,0.242-4.818,3.303-5.799c8.652-2.775,17.25-5.72,26.684-8.869
				C51.599,30.424,52.636,32.771,53.441,35.196z"/>
			<path fill="#FFFFFF" d="M70.027,146.044c3.828-5.357,1.25-10.046-1.289-14.752c-1.182-2.189-2.619-4.238-3.822-6.416
				c-3.881-7.029-4.934-7.268-11.646-2.559c-0.809,0.566-1.682,1.158-2.613,1.414c-2.312,0.633-3.393-0.025-3.082-2.756
				c0.699-6.149,1.129-12.329,1.727-19.181c7.037-2.518,15.145-5.419,23.66-8.466c1.113,4.146,2.736,7.916,3.049,11.792
				c0.949,11.7,1.512,23.435,1.959,35.166c0.164,4.286-4.93,9.748-10.086,10.936C68.685,149.227,69.048,147.417,70.027,146.044z"/>
			<path fill="#FFFFFF" d="M13.968,27.606c1.693-1.031,3.266-2.409,5.096-3.031c8.328-2.83,16.707-5.527,25.137-8.044
				c1.08-0.323,2.557,0.685,3.848,1.077c-0.865,1.161-1.498,2.963-2.637,3.378c-6.545,2.385-13.176,4.56-19.852,6.563
				c-3.494,1.048-7.139,1.601-10.715,2.377C14.552,29.153,14.261,28.379,13.968,27.606z"/>
			<path fill="#FFFFFF" d="M16.38,33.443c11.164-3.808,22.33-7.616,33.805-11.529c-1.205,6.104-24.516,15.1-33.09,13.323
				C16.857,34.64,16.619,34.042,16.38,33.443z"/>
			<path fill="#FFFFFF" d="M44.919,97.626c5.855-2.806,11.627-5.812,17.604-8.333c2.986-1.26,6.324-1.768,9.553-2.324
				c0.879-0.15,1.939,0.75,2.918,1.168c-0.723,0.922-1.258,2.336-2.193,2.688c-8.039,3.025-16.139,5.889-24.254,8.705
				c-0.914,0.316-2.035,0.043-3.059,0.043C45.296,98.923,45.107,98.276,44.919,97.626z"/>
			<path fill="#FFFFFF" d="M11.826,22.338c9.973-4.075,19.939-8.166,30.002-12.005c0.908-0.347,2.457,0.98,3.707,1.53
				c-0.008,0.457-0.018,0.913-0.027,1.37c-11.23,3.889-22.461,7.778-34.916,12.091C11.462,23.163,11.525,22.46,11.826,22.338z"/>
			<path fill="#FFFFFF" d="M66.574,135.467c1.656,5.48,0.631,6.355-6.059,5.041C62.769,138.631,64.564,137.139,66.574,135.467z"/>
		</g>
	</g>
</g>
</svg>
