<?xml version="1.0" encoding="utf-8"?>
<!-- Generator: Adobe Illustrator 15.0.1, SVG Export Plug-In . SVG Version: 6.00 Build 0)  -->
<!DOCTYPE svg PUBLIC "-//W3C//DTD SVG 1.1//EN" "http://www.w3.org/Graphics/SVG/1.1/DTD/svg11.dtd">
<svg version="1.1" id="Layer_1" xmlns="http://www.w3.org/2000/svg" xmlns:xlink="http://www.w3.org/1999/xlink" x="0px" y="0px"
	 width="86.395px" height="195.689px" viewBox="0 0 86.395 195.689" enable-background="new 0 0 86.395 195.689"
	 xml:space="preserve">
<g id="right_thigh_2_">
	<g id="right_thigh_1_">
		<g>
			<path fill="#FFFFFF" d="M9.608,47.132c0.225-3.649,0.961-7.279,2.447-11.059c1.428-9.938,8.148-18.615,18.619-21.496
				c13.244-3.643,28.771,4.357,31.984,18.16c3.682,15.827,6.014,32.048,7.262,48.245c0.145,1.878,0.303,3.751,0.49,5.625
				c0.047,0.461,0.178,1.483,0.293,2.377c0.471,3.159,0.99,6.312,1.52,9.461c1.176,7.032,2.285,14.066,3.227,21.131
				c0.117,0.452,0.217,0.905,0.279,1.359c0.51,3.697,0.951,7.396,1.395,11.097c0.428,1.706,0.703,3.474,0.797,5.283
				c0.064,1.229,0.254,2.439,0.334,3.667c0.152,2.362-0.17,4.688-0.848,6.908c0.027,0.305,0.074,0.605,0.092,0.913
				c0.506,2.029,0.766,4.121,0.734,6.214c0.029,2.227-0.244,4.452-0.842,6.678c-1.65,5.999-5.662,11.2-11.025,14.344
				c-5.543,3.247-12.299,4.123-18.494,2.419c-5.328-1.466-10.926-5.161-13.816-10.072c-1.75-2.479-3.043-5.241-3.582-7.942
				c-0.07-0.352-0.295-0.685-0.355-1.021c-0.58-1.898-1.035-3.895-1.146-5.944c-3.01-4.078-4.912-9.04-4.383-13.828
				c0.074-0.662,0.133-1.324,0.188-1.987c-0.283-2.111-0.469-4.231-0.52-6.347c-0.016-0.61,0.004-1.217,0.041-1.82
				c-3.791-14.542-7.297-29.069-9.682-43.935c-0.002-0.021-0.006-0.043-0.01-0.065c-1.238-2.004-2.127-4.133-2.422-6.268
				c-1.1-7.958-3.697-15.426-3.928-23.578C8.171,52.677,8.661,49.811,9.608,47.132z"/>
			<path fill="#010101" d="M7.231,64.466c0.123,1.247,0.121,2.521,0.387,3.736c4.57,20.91,9.396,41.77,13.646,62.743
				c1.461,7.213,1.047,14.795,2.369,22.047c0.916,5.015,3.34,9.752,6.053,14.318c-0.264-1.412-0.27-2.938-0.83-4.221
				c-3.553-8.132-3.482-16.72-4.041-25.365c-0.549-8.517-2.395-17.008-4.305-25.363c-3.592-15.719-7.635-31.332-11.52-46.981
				c-0.1-0.396-0.525-0.709-0.799-1.062C7.872,64.368,7.552,64.417,7.231,64.466z"/>
			<path fill="#010101" d="M64.657,42.486c5.229,35.349,10.459,70.696,15.689,106.046c-1.99-35.77-10.029-70.75-13.303-106.354
				C66.249,42.281,65.452,42.384,64.657,42.486z"/>
		</g>
	</g>
</g>
</svg>
