<?xml version="1.0" encoding="utf-8"?>
<!-- Generator: Adobe Illustrator 15.0.1, SVG Export Plug-In . SVG Version: 6.00 Build 0)  -->
<!DOCTYPE svg PUBLIC "-//W3C//DTD SVG 1.1//EN" "http://www.w3.org/Graphics/SVG/1.1/DTD/svg11.dtd">
<svg version="1.1" id="svg2" xmlns:svg="http://www.w3.org/2000/svg"
	 xmlns="http://www.w3.org/2000/svg" xmlns:xlink="http://www.w3.org/1999/xlink" x="0px" y="0px" width="1800px" height="600px"
	 viewBox="0 0 1800 600" enable-background="new 0 0 1800 600" xml:space="preserve">
<g id="g1384" transform="translate(-224,-2)">
	<g id="g1321" transform="translate(6.14935,-66.0035)">
	</g>
</g>
<path id="path5806" fill="none" stroke="#00A900" stroke-width="14.4439" d="M116.834,74.972
	c-32.348,27.603-64.697,55.205-101.574,55.205 M116.827,74.977c32.349-27.603,64.697-55.205,101.574-55.205 M319.881,74.978
	c-32.348-27.603-64.696-55.204-101.574-55.204 M319.877,74.973c32.349,27.604,64.696,55.205,101.574,55.205 M522.931,74.973
	c-32.348,27.603-64.696,55.204-101.573,55.204 M522.925,74.977c32.349-27.602,64.696-55.204,101.573-55.204 M725.979,74.979
	c-32.348-27.603-64.696-55.205-101.573-55.205 M725.96,74.965c32.348,27.603,64.696,55.205,101.573,55.205 M929.014,74.964
	c-32.347,27.603-64.696,55.205-101.573,55.205 M929.008,74.969c32.35-27.603,64.697-55.205,101.574-55.205 M1132.062,74.969
	c-32.348-27.602-64.697-55.204-101.574-55.204 M1132.113,74.981c32.348,27.603,64.697,55.205,101.574,55.205 M1335.168,74.98
	c-32.35,27.603-64.697,55.205-101.574,55.205 M1335.16,74.985c32.35-27.603,64.697-55.205,101.574-55.205 M1538.215,74.986
	c-32.348-27.603-64.697-55.205-101.574-55.205 M1538.195,74.973c32.35,27.603,64.697,55.205,101.574,55.205 M1741.25,74.972
	c-32.348,27.603-64.695,55.205-101.574,55.205 M1741.244,74.977c32.348-27.603,64.697-55.205,101.574-55.205 M1944.299,74.978
	c-32.35-27.603-64.697-55.204-101.574-55.204 M1944.293,74.973c32.35,27.604,64.697,55.205,101.574,55.205 M2147.348,74.973
	c-32.348,27.603-64.695,55.204-101.574,55.204 M2147.342,74.977c32.348-27.602,64.697-55.204,101.574-55.204 M2350.396,74.979
	c-32.35-27.603-64.697-55.205-101.574-55.205"/>
</svg>
