<?xml version="1.0" encoding="utf-8"?>
<!-- Generator: Adobe Illustrator 15.0.1, SVG Export Plug-In . SVG Version: 6.00 Build 0)  -->
<!DOCTYPE svg PUBLIC "-//W3C//DTD SVG 1.1//EN" "http://www.w3.org/Graphics/SVG/1.1/DTD/svg11.dtd">
<svg version="1.1" id="Layer_1" xmlns="http://www.w3.org/2000/svg" xmlns:xlink="http://www.w3.org/1999/xlink" x="0px" y="0px"
	 width="175.511px" height="277.551px" viewBox="0 0 175.511 277.551" enable-background="new 0 0 175.511 277.551"
	 xml:space="preserve">
<g id="torso">
	<g id="xDRb6P_3_">
		<g>
			<path fill="#FFFFFF" d="M126.66,43.31c-0.061,3.929-2.629,7.094-6.291,8.82c-8.689,4.094-17.416,8.309-26.527,11.222
				c-4.424,1.414-9.883,0.7-14.633-0.252c-10.055-2.017-19.203-6.4-27.289-12.817c-4.826-3.829-5.652-6.195-4.27-13.865
				C55.266,53.486,70.6,57.312,85.617,59.385C101.668,61.598,114.715,52.779,126.66,43.31z"/>
			<path fill="#FFFFFF" d="M106.834,270.482c13.916,0.796,27.154-15.442,31.096-27.456c0.25-0.762,0.703-1.285,1.244-1.623
				c-0.631-1.174-1.541-2.241-2.729-3.172c-0.4-0.702-0.969-1.312-1.754-1.721c-4.549-2.365-10.625-1.931-16.146-1.531
				c-8.502-3.769-20.342-3.35-28.273-3.327c-10.801,0.028-21.793,0.063-32.578,0.769c-3.775,0.247-8.207,0.687-12.203,1.983
				c-5.654-0.356-11.309-0.69-16.988-0.577c-1.092,0.021-1.986,0.339-2.707,0.832c-1.785-1.436-4.402-1.793-6.494,0.299
				c-0.334,0.333-0.666,0.667-1,1c-1.686,1.686-1.801,4.344-0.66,6.239c-0.027,0.729,0.105,1.46,0.414,2.146
				c-0.18,0.539-0.268,1.144-0.219,1.818c1.002,13.784,11.801,17.596,23.863,19.007c6.75,0.79,15.297,1.671,22.559-0.228
				c0.711-0.144,1.428-0.297,2.15-0.463c1.27-0.291,2.521-0.554,3.775-0.758c1.158-1.715,2.213-3.518,3.385-5.08
				c1.338-1.779,3.602-1.709,4.793-0.463c0.658,0.018,1.332,0.264,1.938,0.854c5.016,4.896,9.768,8.432,16.809,9.631
				c3.145,0.536,6.201,1.036,9.201,1.843C106.475,270.487,106.646,270.471,106.834,270.482z"/>
			<g>
				<path fill="none" d="M25.629,185.352c0.014-0.002,0.029-0.002,0.045-0.004c0.02-0.146,0.039-0.297,0.059-0.443
					C25.695,185.053,25.666,185.203,25.629,185.352z"/>
				<path fill="none" d="M31.854,103.324c-0.232,0.124-0.471,0.245-0.715,0.358c-0.182,12.186,0.033,24.383-0.254,36.524
					C32.727,120.312,32.75,109.805,31.854,103.324z"/>
				<path fill="none" d="M21.947,209.371c-0.934,9.044-2.172,18.058-3.371,27.075c1.77-12.174,3.334-23.239,4.715-33.314
					C22.611,204.809,22.205,206.867,21.947,209.371z"/>
				<path fill="none" d="M47.775,49.592c16.633,13.449,34.572,22.476,56.344,13.298c7.727-3.256,15.062-7.756,21.908-12.627
					c2.717-1.934,3.738-6.186,7.629-6.948c-4.533-1.512-7.641-3.458-8.332-7.945c-0.121,3.479-1.102,6.72-4.02,8.805
					c-9.908,7.079-20.666,13.65-33.363,12.714c-7.613-0.562-15.414-3.03-22.398-6.234c-5.01-2.297-9.42-6.757-12.873-11.204
					c-0.924-1.189-0.869-3.139-0.66-5.202c-1.234,5.35-6.197,7.617-12.883,9.622c1.691,0.15,3.385,0.299,5.08,0.449
					C45.551,46.357,46.312,48.409,47.775,49.592z"/>
				<path fill="none" d="M18.547,236.655h0.002c0.01-0.069,0.02-0.139,0.027-0.208C18.566,236.516,18.557,236.584,18.547,236.655z"
					/>
				<path fill="none" d="M25.73,184.905c3.66-14.727,4.799-29.668,5.154-44.698C29.826,151.654,28.166,166.211,25.73,184.905z"/>
				<path fill="none" d="M139.1,181.407c0.609-21.27,1.221-42.539,1.828-63.808C139.652,131.298,138.93,151.512,139.1,181.407z"/>
				<path fill="none" d="M141.344,103.077c-0.139,4.84-0.275,9.681-0.416,14.521c0.537-5.755,1.17-10.368,1.877-14.061
					C142.314,103.431,141.828,103.275,141.344,103.077z"/>
				<path fill="none" d="M138.678,196.09c0.189,0.008,0.377,0.016,0.566,0.023c-0.072-5.148-0.119-10.042-0.146-14.708
					C138.959,186.301,138.818,191.195,138.678,196.09z"/>
				<path fill="none" d="M70.828,184.109c-4.914-0.726-9.959-1.113-14.912-0.905c-9.693,0.407-19.363,1.34-30.242,2.145
					c-0.725,5.557-1.518,11.474-2.383,17.783c1.477-3.643,4.25-5.49,9.639-6.201c11.025-1.457,22.254-3.826,33.188-3.006
					c21.17,1.588,42.213,4.998,63.266,7.963c5.109,0.719,9.379,6.256,9.287,10.269c-0.193,8.317-0.33,16.639-0.344,24.959
					c-0.002,1.19,0.156,2.38,0.346,3.571c0.533,0,1.051,0.004,1.592,0.004c-0.471-15.469-0.789-29.342-0.979-41.812
					c-6.531-5.623-14.938-5.791-22.668-7.344C101.467,188.491,86.125,186.37,70.828,184.109z"/>
				<path fill="#FFFFFF" d="M169.867,76.324c-0.305-6.705-3.883-11.017-8.68-13.121c0.07-2.499,0.107-5.246,0.107-8.289
					c-10.238-7.974-20.643-9.267-27.639-11.6c-3.891,0.762-4.912,5.014-7.629,6.948c-6.848,4.871-14.184,9.371-21.908,12.627
					c-21.771,9.178-39.713,0.151-56.346-13.298c-1.463-1.183-2.225-3.234-3.566-5.271c-1.695-0.149-3.389-0.299-5.08-0.449
					c-5.029,1.509-11.033,2.871-17.164,5.285c0,4.387,0.068,8.28,0.195,11.759c-0.912,0.215-1.805,0.483-2.66,0.829
					c-0.539,0.122-1.08,0.266-1.623,0.447c-7.555,2.521-11.73,10.127-11.793,17.71c-0.248,1.91-0.252,3.837,0.027,5.72
					c1.525,10.206,12.83,22.642,23.998,18.489c-0.715,4.636-1.189,9.297-1.34,13.969c-0.18,5.627,1.109,11.336,0.625,16.912
					c-1.338,15.408-3.369,30.756-4.885,46.152c-0.381,3.877-1.037,7.097-4.031,10.092c-4.371,4.373-4.129,7.392-0.861,12.781
					c0.695,1.149,0.875,2.836,0.742,4.225c-0.348,3.638-1.016,7.245-1.521,10.869c-1.117,8.012-2.215,16.027-3.322,24.042
					c0.721,0.046,1.441,0.178,2.162,0.225c0.283-2.213,0.578-4.551,0.873-6.551c-0.002,0-0.002,0-0.004,0
					c0.012,0,0.021-0.224,0.031-0.294c1.197-9.018,2.438-18.074,3.371-27.118c0.258-2.505,0.662-4.583,1.344-6.261
					c0.865-6.311,1.658-12.238,2.383-17.794c-0.016,0.001-0.031-0.003-0.047-0.003c0.039-0.148,0.066-0.301,0.104-0.45
					c2.436-18.692,4.096-33.251,5.154-44.699c0.287-12.141,0.072-24.339,0.254-36.525c0.244-0.114,0.48-0.235,0.715-0.358
					c0.896,6.481,0.871,16.987-0.969,36.882c-0.355,15.03-1.494,29.973-5.154,44.698c-0.018,0.146-0.039,0.297-0.057,0.444
					c10.877-0.806,20.549-1.738,30.242-2.146c4.953-0.208,9.998,0.179,14.912,0.905c15.297,2.261,30.639,4.382,45.787,7.425
					c7.73,1.554,16.137,1.72,22.668,7.344c-0.014-0.927-0.027-1.853-0.041-2.764c-0.188-0.009-0.377-0.017-0.564-0.024
					c0.141-4.895,0.279-9.789,0.42-14.683c-0.168-29.896,0.553-50.108,1.83-63.808c0.139-4.84,0.277-9.681,0.416-14.521
					c0.482,0.197,0.971,0.354,1.461,0.461c-0.707,3.693-1.342,8.305-1.877,14.061c-0.609,21.269-1.221,42.539-1.83,63.808
					c0.027,4.666,0.074,9.559,0.146,14.708c0.514,0.022,1.027,0.044,1.543,0.065c0.873-30.844,1.746-61.688,2.619-92.533
					c3.402,0.499,6.883-1.021,9.713-3.547c3.055-0.186,6.191-1.323,8.25-3.403c1.244-1.257,2.146-2.766,2.764-4.39
					C167.854,88.08,170.131,82.143,169.867,76.324z"/>
				<path fill="#FFFFFF" d="M52.01,34.249c0.152-1.506,0.387-3.073,0.387-4.452c-4.422,0.702-6.645,3.469-8.359,10.573
					c-1.902,0.678-3.715,1.324-5.525,1.97c0.064,0.498,0.129,0.997,0.195,1.495c0.141,0.012,0.281,0.025,0.422,0.037
					C45.811,41.866,50.773,39.599,52.01,34.249z"/>
				<path fill="#FFFFFF" d="M138.67,240.686c0.156,0.984,0.48,1.97,0.607,2.955c0.469-0.041,0.557-0.082,1.557-0.123
					c0-1.537,0-3.074,0-4.612c0-7.494-0.246-14.99-0.072-22.479c0.053-2.24,0.289-4.764,1.381-6.627
					c2.414-4.121,1.346-6.938-1.877-10.074c-0.309-0.299-0.645-0.572-0.963-0.847c0.189,12.47,0.498,26.345,0.969,41.812
					C139.73,240.69,139.203,240.686,138.67,240.686z"/>
				<path fill="#FFFFFF" d="M52.67,39.451c3.453,4.447,7.863,8.907,12.873,11.204c6.984,3.205,14.785,5.673,22.398,6.234
					c12.697,0.936,23.455-5.635,33.363-12.714c2.918-2.085,3.896-5.327,4.02-8.805l0,0C119.168-4.505,59.67,1.082,52.01,34.249
					c0,0,0,0,0,0.001C51.801,36.312,51.746,38.262,52.67,39.451z"/>
				<path fill="#FFFFFF" d="M133.656,43.315c0.373-0.073,0.762-0.125,1.189-0.129c0.025,0,0.045-0.543,0.074-0.91
					c-1.52-0.436-3.037-0.87-4.463-1.279c0.039-9.895-1.342-13.157-6.129-14.04c0.236,1.052,0.504,1.957,0.635,2.882
					c0.256,1.822,0.424,3.708,0.359,5.531C126.016,39.855,129.123,41.803,133.656,43.315z"/>
				<path fill="#FFFFFF" d="M138.668,212.157c0.094-4.012-4.178-9.549-9.285-10.27c-21.053-2.965-42.098-6.373-63.268-7.963
					c-10.932-0.82-22.16,1.551-33.188,3.006c-5.389,0.711-8.16,2.56-9.637,6.203c-1.381,10.075-2.947,21.141-4.715,33.313
					c-0.012,0.069-0.02,0.139-0.027,0.208c50.123,0,70.629,3.947,120.121,4.031c-0.189-1.19-0.348-2.381-0.346-3.571
					C138.34,228.795,138.477,220.473,138.668,212.157z"/>
			</g>
			<path fill="#010101" d="M15.516,243.153c1.105-8.016,2.203-16.03,3.322-24.042c0.506-3.624,1.174-7.229,1.521-10.869
				c0.133-1.388-0.047-3.075-0.744-4.226c-3.266-5.389-3.508-8.407,0.863-12.78c2.992-2.995,3.648-6.214,4.031-10.093
				c1.516-15.396,3.547-30.742,4.885-46.151c0.484-5.576-0.807-11.285-0.627-16.912c0.221-6.865,1.135-13.707,2.496-20.479
				c-0.822,29.436,1.607,59.01-5.637,87.751c10.898-0.807,20.582-1.741,30.289-2.148c4.953-0.208,9.998,0.18,14.912,0.904
				c15.297,2.262,30.639,4.383,45.787,7.426c8.107,1.629,16.963,1.718,23.611,8.191c3.223,3.135,4.256,5.953,1.842,10.072
				c-1.094,1.865-1.4,4.389-1.453,6.627c-0.174,7.49-0.072,14.986-0.076,22.48c0,1.538,0,3.074,0,4.613
				c-0.469,0.039-0.939,0.08-1.408,0.121c-0.283-2.176-0.811-4.351-0.807-6.525c0.014-8.32,0.15-16.641,0.344-24.959
				c0.092-4.012-4.178-9.549-9.287-10.27c-21.053-2.965-42.096-6.373-63.266-7.963c-10.934-0.82-22.162,1.551-33.188,3.006
				c-7.871,1.039-10.164,4.498-10.98,12.441c-1.168,11.333-2.824,22.616-4.271,33.92C16.957,243.245,16.236,243.199,15.516,243.153z
				 M140.201,206.602c0.369-0.405,0.738-0.811,1.107-1.217c-0.996-1.371-1.934-2.789-3-4.104
				c-4.834-5.964-12.361-5.642-18.721-7.039c-26.258-5.771-52.941-8.331-79.848-7.616c-4.561,0.121-9.211,1.385-13.578,2.844
				c-4.553,1.521-6.771,6.545-5.41,10.051c3.771-1.656,7.408-4.106,11.355-4.81c8.15-1.45,16.463-2.05,24.723-2.858
				c17.762-1.737,35.348,0.681,52.613,4.05C119.982,197.958,132.258,196.194,140.201,206.602z"/>
			<path fill="#010101" d="M44.207,44.32c-1.836-0.162-3.67-0.324-5.502-0.486c-0.064-0.498-0.131-0.997-0.195-1.495
				c1.812-0.646,3.623-1.292,5.527-1.97c1.713-7.104,3.938-9.871,8.359-10.573c0,3.268-1.324,7.596,0.273,9.654
				c3.451,4.447,7.863,8.907,12.873,11.204c6.984,3.205,14.783,5.673,22.396,6.234c12.697,0.936,23.455-5.635,33.363-12.714
				c4.447-3.178,4.404-9.036,3.658-14.336c-0.131-0.925-0.398-1.83-0.635-2.882c4.787,0.883,6.168,4.145,6.131,14.04
				c1.424,0.409,2.941,0.843,4.461,1.279c-0.029,0.367-0.049,0.91-0.074,0.91c-4.91,0.042-5.842,4.958-8.816,7.077
				c-6.848,4.871-14.184,9.371-21.908,12.627c-21.771,9.178-39.713,0.151-56.346-13.298C46.312,48.409,45.551,46.357,44.207,44.32z
				 M126.66,43.31c-11.945,9.469-24.992,18.289-41.043,16.075C70.6,57.312,55.266,53.487,47.65,36.417
				c-1.385,7.669-0.557,10.036,4.27,13.865c8.086,6.417,17.234,10.8,27.289,12.817c4.75,0.952,10.209,1.666,14.633,0.252
				c9.111-2.913,17.838-7.127,26.527-11.222C124.031,50.404,126.6,47.239,126.66,43.31z"/>
			<path fill="#010101" d="M138.678,196.09c0.916-31.931,1.83-63.86,2.746-95.79c0.691,0.02,1.383,0.039,2.074,0.059
				c-0.902,31.94-1.807,63.88-2.711,95.82C140.084,196.15,139.381,196.12,138.678,196.09z"/>
			<path fill="#FFFFFF" d="M140.201,206.602c-7.943-10.409-20.219-8.645-30.758-10.7c-17.266-3.369-34.852-5.787-52.613-4.05
				c-8.26,0.809-16.57,1.408-24.721,2.858c-3.949,0.703-7.584,3.153-11.357,4.81c-1.361-3.506,0.857-8.53,5.41-10.051
				c4.367-1.459,9.02-2.723,13.578-2.844c26.906-0.715,53.59,1.846,79.848,7.616c6.359,1.397,13.887,1.075,18.721,7.039
				c1.066,1.315,2.006,2.733,3.002,4.104C140.939,205.792,140.57,206.198,140.201,206.602z"/>
		</g>
	</g>
</g>
</svg>
