<?xml version="1.0" encoding="utf-8"?>
<!-- Generator: Adobe Illustrator 15.0.1, SVG Export Plug-In . SVG Version: 6.00 Build 0)  -->
<!DOCTYPE svg PUBLIC "-//W3C//DTD SVG 1.1//EN" "http://www.w3.org/Graphics/SVG/1.1/DTD/svg11.dtd">
<svg version="1.1" id="svg2" xmlns:svg="http://www.w3.org/2000/svg"
	 xmlns="http://www.w3.org/2000/svg" xmlns:xlink="http://www.w3.org/1999/xlink" x="0px" y="0px" width="300px" height="300px"
	 viewBox="0 0 300 300" enable-background="new 0 0 300 300" xml:space="preserve">
<g id="layer1" transform="translate(255,539)">
	
		<radialGradient id="p1_1_" cx="-381.252" cy="136.0859" r="154.9873" gradientTransform="matrix(1.2033 0 0 -1.6431 353.4894 -53.8391)" gradientUnits="userSpaceOnUse">
		<stop  offset="0" style="stop-color:#D5FFD5"/>
		<stop  offset="0.36" style="stop-color:#80FF80"/>
		<stop  offset="0.79" style="stop-color:#2AFF2A"/>
		<stop  offset="1" style="stop-color:#00FF00"/>
	</radialGradient>
	<path id="p1" fill="url(#p1_1_)" stroke="#00D400" stroke-width="4" d="M40.977-388.729c0,80.778-65.484,146.262-146.262,146.262
		c-80.778,0-146.262-65.483-146.262-146.262s65.483-146.262,146.262-146.262C-24.508-534.99,40.977-469.507,40.977-388.729z"/>
	
		<linearGradient id="p2_1_" gradientUnits="userSpaceOnUse" x1="-96.8594" y1="-403.6768" x2="-139.8594" y2="-257.6768" gradientTransform="matrix(1 0 0 -1 0 -777)">
		<stop  offset="0" style="stop-color:#FFFFFF;stop-opacity:0"/>
		<stop  offset="1" style="stop-color:#FFFFFF"/>
	</linearGradient>
	<path id="p2" fill="url(#p2_1_)" d="M-105-529c-76,0-138,61-140,137c39,35,77,36,96,27c20-9,36-38,62-45c26-6,40-5,81,12
		c23,9,20-22,37-25C16-484-39-529-105-529z"/>
</g>
</svg>
